<svg xmlns="http://www.w3.org/2000/svg">
         <defs>
            <style type="text/css">
    @namespace "http://www.w3.org/2000/svg";
    .line                 {fill: none; stroke: #332900; stroke-width: 1;}
    .bold-line            {stroke: #141000; shape-rendering: crispEdges; stroke-width: 2;}
    .thin-line            {stroke: #1F1800; shape-rendering: crispEdges}
    .filled               {fill: #332900; stroke: none;}
    text.terminal         {font-family: Verdana, Sans-serif;
                            font-size: 12px;
                            fill: #141000;
                            font-weight: bold;
                          }
    text.nonterminal      {font-family: Verdana, Sans-serif;
                            font-size: 12px;
                            fill: #1A1400;
                            font-weight: normal;
                          }
    text.regexp           {font-family: Verdana, Sans-serif;
                            font-size: 12px;
                            fill: #1F1800;
                            font-weight: normal;
                          }
    rect, circle, polygon {fill: #332900; stroke: #332900;}
    rect.terminal         {fill: #FFDB4D; stroke: #332900; stroke-width: 1;}
    rect.nonterminal      {fill: #FFEC9E; stroke: #332900; stroke-width: 1;}
    rect.text             {fill: none; stroke: none;}
    polygon.regexp        {fill: #FFF4C7; stroke: #332900; stroke-width: 1;}
  </style>
         </defs>
         <polygon points="9 17 1 13 1 21"/>
         <polygon points="17 17 9 13 9 21"/>
         <rect x="31" y="3" width="28" height="32" rx="10"/>
         <rect x="29" y="1" width="28" height="32" class="terminal" rx="10"/>
         <text class="terminal" x="39" y="21">C</text>
         <rect x="99" y="35" width="26" height="32" rx="10"/>
         <rect x="97" y="33" width="26" height="32" class="terminal" rx="10"/>
         <text class="terminal" x="107" y="53">|</text>
         <rect x="185" y="99" width="28" height="32" rx="10"/>
         <rect x="183" y="97" width="28" height="32" class="terminal" rx="10"/>
         <text class="terminal" x="193" y="117">/</text>
         <rect x="273" y="67" width="28" height="32" rx="10"/>
         <rect x="271" y="65" width="28" height="32" class="terminal" rx="10"/>
         <text class="terminal" x="281" y="85">2</text>
         <rect x="273" y="111" width="28" height="32" rx="10"/>
         <rect x="271" y="109" width="28" height="32" class="terminal" rx="10"/>
         <text class="terminal" x="281" y="129">3</text>
         <rect x="165" y="155" width="26" height="32" rx="10"/>
         <rect x="163" y="153" width="26" height="32" class="terminal" rx="10"/>
         <text class="terminal" x="173" y="173">r</text>
         <rect x="99" y="199" width="28" height="32" rx="10"/>
         <rect x="97" y="197" width="28" height="32" class="terminal" rx="10"/>
         <text class="terminal" x="107" y="217">2</text>
         <rect x="99" y="243" width="28" height="32" rx="10"/>
         <rect x="97" y="241" width="28" height="32" class="terminal" rx="10"/>
         <text class="terminal" x="107" y="261">3</text>
         <rect x="99" y="287" width="24" height="32" rx="10"/>
         <rect x="97" y="285" width="24" height="32" class="terminal" rx="10"/>
         <text class="terminal" x="107" y="305">.</text>
         <rect x="163" y="319" width="26" height="32" rx="10"/>
         <rect x="161" y="317" width="26" height="32" class="terminal" rx="10"/>
         <text class="terminal" x="171" y="337">|</text>
         <rect x="99" y="363" width="26" height="32" rx="10"/>
         <rect x="97" y="361" width="26" height="32" class="terminal" rx="10"/>
         <text class="terminal" x="107" y="381">r</text>
         <svg:path xmlns:svg="http://www.w3.org/2000/svg" class="line" d="m17 17 h2 m0 0 h10 m28 0 h10 m20 0 h10 m0 0 h252 m-282 0 h20 m262 0 h20 m-302 0 q10 0 10 10 m282 0 q0 -10 10 -10 m-292 10 v12 m282 0 v-12 m-282 12 q0 10 10 10 m262 0 q10 0 10 -10 m-272 10 h10 m26 0 h10 m20 0 h10 m0 0 h166 m-196 0 h20 m176 0 h20 m-216 0 q10 0 10 10 m196 0 q0 -10 10 -10 m-206 10 v12 m196 0 v-12 m-196 12 q0 10 10 10 m176 0 q10 0 10 -10 m-166 10 h10 m0 0 h38 m-68 0 h20 m48 0 h20 m-88 0 q10 0 10 10 m68 0 q0 -10 10 -10 m-78 10 v12 m68 0 v-12 m-68 12 q0 10 10 10 m48 0 q10 0 10 -10 m-58 10 h10 m28 0 h10 m40 -32 h10 m28 0 h10 m-68 0 h20 m48 0 h20 m-88 0 q10 0 10 10 m68 0 q0 -10 10 -10 m-78 10 v24 m68 0 v-24 m-68 24 q0 10 10 10 m48 0 q10 0 10 -10 m-58 10 h10 m28 0 h10 m-166 -54 v20 m196 0 v-20 m-196 20 v68 m196 0 v-68 m-196 68 q0 10 10 10 m176 0 q10 0 10 -10 m-186 10 h10 m26 0 h10 m0 0 h130 m-252 -130 v20 m282 0 v-20 m-282 20 v144 m282 0 v-144 m-282 144 q0 10 10 10 m262 0 q10 0 10 -10 m-272 10 h10 m28 0 h10 m0 0 h214 m-272 -10 v20 m282 0 v-20 m-282 20 v24 m282 0 v-24 m-282 24 q0 10 10 10 m262 0 q10 0 10 -10 m-272 10 h10 m28 0 h10 m0 0 h214 m-272 -10 v20 m282 0 v-20 m-282 20 v24 m282 0 v-24 m-282 24 q0 10 10 10 m262 0 q10 0 10 -10 m-272 10 h10 m24 0 h10 m20 0 h10 m0 0 h36 m-66 0 h20 m46 0 h20 m-86 0 q10 0 10 10 m66 0 q0 -10 10 -10 m-76 10 v12 m66 0 v-12 m-66 12 q0 10 10 10 m46 0 q10 0 10 -10 m-56 10 h10 m26 0 h10 m20 -32 h132 m-272 -10 v20 m282 0 v-20 m-282 20 v56 m282 0 v-56 m-282 56 q0 10 10 10 m262 0 q10 0 10 -10 m-272 10 h10 m26 0 h10 m0 0 h216 m23 -360 h-3"/>
         <polygon points="379 17 387 13 387 21"/>
         <polygon points="379 17 371 13 371 21"/></svg>
