<svg xmlns="http://www.w3.org/2000/svg">
         <defs>
            <style type="text/css">
    @namespace "http://www.w3.org/2000/svg";
    .line                 {fill: none; stroke: #332900; stroke-width: 1;}
    .bold-line            {stroke: #141000; shape-rendering: crispEdges; stroke-width: 2;}
    .thin-line            {stroke: #1F1800; shape-rendering: crispEdges}
    .filled               {fill: #332900; stroke: none;}
    text.terminal         {font-family: Verdana, Sans-serif;
                            font-size: 12px;
                            fill: #141000;
                            font-weight: bold;
                          }
    text.nonterminal      {font-family: Verdana, Sans-serif;
                            font-size: 12px;
                            fill: #1A1400;
                            font-weight: normal;
                          }
    text.regexp           {font-family: Verdana, Sans-serif;
                            font-size: 12px;
                            fill: #1F1800;
                            font-weight: normal;
                          }
    rect, circle, polygon {fill: #332900; stroke: #332900;}
    rect.terminal         {fill: #FFDB4D; stroke: #332900; stroke-width: 1;}
    rect.nonterminal      {fill: #FFEC9E; stroke: #332900; stroke-width: 1;}
    rect.text             {fill: none; stroke: none;}
    polygon.regexp        {fill: #FFF4C7; stroke: #332900; stroke-width: 1;}
  </style>
         </defs>
         <polygon points="9 17 1 13 1 21"/>
         <polygon points="17 17 9 13 9 21"/>
         <rect x="31" y="3" width="30" height="32" rx="10"/>
         <rect x="29" y="1" width="30" height="32" class="terminal" rx="10"/>
         <text class="terminal" x="39" y="21">O</text>
         <rect x="101" y="35" width="28" height="32" rx="10"/>
         <rect x="99" y="33" width="28" height="32" class="terminal" rx="10"/>
         <text class="terminal" x="109" y="53">2</text>
         <rect x="101" y="79" width="28" height="32" rx="10"/>
         <rect x="99" y="77" width="28" height="32" class="terminal" rx="10"/>
         <text class="terminal" x="109" y="97">3</text>
         <rect x="169" y="111" width="28" height="32" rx="10"/>
         <rect x="167" y="109" width="28" height="32" class="terminal" rx="10"/>
         <text class="terminal" x="177" y="129">/</text>
         <rect x="217" y="111" width="28" height="32" rx="10"/>
         <rect x="215" y="109" width="28" height="32" class="terminal" rx="10"/>
         <text class="terminal" x="225" y="129">2</text>
         <rect x="101" y="155" width="26" height="32" rx="10"/>
         <rect x="99" y="153" width="26" height="32" class="terminal" rx="10"/>
         <text class="terminal" x="109" y="173">|</text>
         <rect x="167" y="187" width="28" height="32" rx="10"/>
         <rect x="165" y="185" width="28" height="32" class="terminal" rx="10"/>
         <text class="terminal" x="175" y="205">3</text>
         <rect x="101" y="231" width="28" height="32" rx="10"/>
         <rect x="99" y="229" width="28" height="32" class="terminal" rx="10"/>
         <text class="terminal" x="109" y="249">/</text>
         <rect x="149" y="231" width="28" height="32" rx="10"/>
         <rect x="147" y="229" width="28" height="32" class="terminal" rx="10"/>
         <text class="terminal" x="157" y="249">3</text>
         <rect x="101" y="275" width="24" height="32" rx="10"/>
         <rect x="99" y="273" width="24" height="32" class="terminal" rx="10"/>
         <text class="terminal" x="109" y="293">.</text>
         <svg:path xmlns:svg="http://www.w3.org/2000/svg" class="line" d="m17 17 h2 m0 0 h10 m30 0 h10 m20 0 h10 m0 0 h174 m-204 0 h20 m184 0 h20 m-224 0 q10 0 10 10 m204 0 q0 -10 10 -10 m-214 10 v12 m204 0 v-12 m-204 12 q0 10 10 10 m184 0 q10 0 10 -10 m-194 10 h10 m28 0 h10 m0 0 h136 m-194 -10 v20 m204 0 v-20 m-204 20 v24 m204 0 v-24 m-204 24 q0 10 10 10 m184 0 q10 0 10 -10 m-194 10 h10 m28 0 h10 m20 0 h10 m0 0 h86 m-116 0 h20 m96 0 h20 m-136 0 q10 0 10 10 m116 0 q0 -10 10 -10 m-126 10 v12 m116 0 v-12 m-116 12 q0 10 10 10 m96 0 q10 0 10 -10 m-106 10 h10 m28 0 h10 m0 0 h10 m28 0 h10 m-174 -42 v20 m204 0 v-20 m-204 20 v56 m204 0 v-56 m-204 56 q0 10 10 10 m184 0 q10 0 10 -10 m-194 10 h10 m26 0 h10 m20 0 h10 m0 0 h38 m-68 0 h20 m48 0 h20 m-88 0 q10 0 10 10 m68 0 q0 -10 10 -10 m-78 10 v12 m68 0 v-12 m-68 12 q0 10 10 10 m48 0 q10 0 10 -10 m-58 10 h10 m28 0 h10 m20 -32 h50 m-194 -10 v20 m204 0 v-20 m-204 20 v56 m204 0 v-56 m-204 56 q0 10 10 10 m184 0 q10 0 10 -10 m-194 10 h10 m28 0 h10 m0 0 h10 m28 0 h10 m0 0 h88 m-194 -10 v20 m204 0 v-20 m-204 20 v24 m204 0 v-24 m-204 24 q0 10 10 10 m184 0 q10 0 10 -10 m-194 10 h10 m24 0 h10 m0 0 h140 m23 -272 h-3"/>
         <polygon points="303 17 311 13 311 21"/>
         <polygon points="303 17 295 13 295 21"/></svg>
