<svg xmlns="http://www.w3.org/2000/svg">
         <defs>
            <style type="text/css">
    @namespace "http://www.w3.org/2000/svg";
    .line                 {fill: none; stroke: #332900; stroke-width: 1;}
    .bold-line            {stroke: #141000; shape-rendering: crispEdges; stroke-width: 2;}
    .thin-line            {stroke: #1F1800; shape-rendering: crispEdges}
    .filled               {fill: #332900; stroke: none;}
    text.terminal         {font-family: Verdana, Sans-serif;
                            font-size: 12px;
                            fill: #141000;
                            font-weight: bold;
                          }
    text.nonterminal      {font-family: Verdana, Sans-serif;
                            font-size: 12px;
                            fill: #1A1400;
                            font-weight: normal;
                          }
    text.regexp           {font-family: Verdana, Sans-serif;
                            font-size: 12px;
                            fill: #1F1800;
                            font-weight: normal;
                          }
    rect, circle, polygon {fill: #332900; stroke: #332900;}
    rect.terminal         {fill: #FFDB4D; stroke: #332900; stroke-width: 1;}
    rect.nonterminal      {fill: #FFEC9E; stroke: #332900; stroke-width: 1;}
    rect.text             {fill: none; stroke: none;}
    polygon.regexp        {fill: #FFF4C7; stroke: #332900; stroke-width: 1;}
  </style>
         </defs>
         <polygon points="9 33 1 29 1 37"/>
         <polygon points="17 33 9 29 9 37"/><a xmlns:xlink="http://www.w3.org/1999/xlink" xlink:href="#m_measure" xlink:title="m_measure">
            <rect x="71" y="19" width="94" height="32"/>
            <rect x="69" y="17" width="94" height="32" class="nonterminal"/>
            <text class="nonterminal" x="79" y="37">m_measure</text></a><a xmlns:xlink="http://www.w3.org/1999/xlink" xlink:href="#m_items" xlink:title="m_items">
            <rect x="51" y="63" width="74" height="32"/>
            <rect x="49" y="61" width="74" height="32" class="nonterminal"/>
            <text class="nonterminal" x="59" y="81">m_items</text></a><svg:path xmlns:svg="http://www.w3.org/2000/svg" class="line" d="m17 33 h2 m40 0 h10 m94 0 h10 m-134 0 l20 0 m-1 0 q-9 0 -9 -10 l0 -12 q0 -10 10 -10 m114 32 l20 0 m-20 0 q10 0 10 -10 l0 -12 q0 -10 -10 -10 m-114 0 h10 m0 0 h104 m-154 32 h20 m154 0 h20 m-194 0 q10 0 10 10 m174 0 q0 -10 10 -10 m-184 10 v24 m174 0 v-24 m-174 24 q0 10 10 10 m154 0 q10 0 10 -10 m-164 10 h10 m74 0 h10 m0 0 h60 m23 -44 h-3"/>
         <polygon points="223 33 231 29 231 37"/>
         <polygon points="223 33 215 29 215 37"/></svg>
