<svg xmlns="http://www.w3.org/2000/svg">
         <defs>
            <style type="text/css">
    @namespace "http://www.w3.org/2000/svg";
    .line                 {fill: none; stroke: #332900; stroke-width: 1;}
    .bold-line            {stroke: #141000; shape-rendering: crispEdges; stroke-width: 2;}
    .thin-line            {stroke: #1F1800; shape-rendering: crispEdges}
    .filled               {fill: #332900; stroke: none;}
    text.terminal         {font-family: Verdana, Sans-serif;
                            font-size: 12px;
                            fill: #141000;
                            font-weight: bold;
                          }
    text.nonterminal      {font-family: Verdana, Sans-serif;
                            font-size: 12px;
                            fill: #1A1400;
                            font-weight: normal;
                          }
    text.regexp           {font-family: Verdana, Sans-serif;
                            font-size: 12px;
                            fill: #1F1800;
                            font-weight: normal;
                          }
    rect, circle, polygon {fill: #332900; stroke: #332900;}
    rect.terminal         {fill: #FFDB4D; stroke: #332900; stroke-width: 1;}
    rect.nonterminal      {fill: #FFEC9E; stroke: #332900; stroke-width: 1;}
    rect.text             {fill: none; stroke: none;}
    polygon.regexp        {fill: #FFF4C7; stroke: #332900; stroke-width: 1;}
  </style>
         </defs>
         <polygon points="9 17 1 13 1 21"/>
         <polygon points="17 17 9 13 9 21"/><a xmlns:xlink="http://www.w3.org/1999/xlink" xlink:href="#m_rhythm" xlink:title="m_rhythm">
            <rect x="31" y="3" width="84" height="32"/>
            <rect x="29" y="1" width="84" height="32" class="nonterminal"/>
            <text class="nonterminal" x="39" y="21">m_rhythm</text></a><a xmlns:xlink="http://www.w3.org/1999/xlink" xlink:href="#m_dot" xlink:title="m_dot">
            <rect x="155" y="35" width="60" height="32"/>
            <rect x="153" y="33" width="60" height="32" class="nonterminal"/>
            <text class="nonterminal" x="163" y="53">m_dot</text></a><a xmlns:xlink="http://www.w3.org/1999/xlink" xlink:href="#m_perfect" xlink:title="m_perfect">
            <rect x="275" y="35" width="84" height="32"/>
            <rect x="273" y="33" width="84" height="32" class="nonterminal"/>
            <text class="nonterminal" x="283" y="53">m_perfect</text></a><a xmlns:xlink="http://www.w3.org/1999/xlink" xlink:href="#m_imperfect" xlink:title="m_imperfect">
            <rect x="275" y="79" width="98" height="32"/>
            <rect x="273" y="77" width="98" height="32" class="nonterminal"/>
            <text class="nonterminal" x="283" y="97">m_imperfect</text></a><rect x="433" y="35" width="30" height="32" rx="10"/>
         <rect x="431" y="33" width="30" height="32" class="terminal" rx="10"/>
         <text class="terminal" x="441" y="53">~</text><a xmlns:xlink="http://www.w3.org/1999/xlink" xlink:href="#pitch" xlink:title="pitch">
            <rect x="503" y="3" width="50" height="32"/>
            <rect x="501" y="1" width="50" height="32" class="nonterminal"/>
            <text class="nonterminal" x="511" y="21">pitch</text></a><a xmlns:xlink="http://www.w3.org/1999/xlink" xlink:href="#m_notesuffix" xlink:title="m_notesuffix">
            <rect x="593" y="35" width="102" height="32"/>
            <rect x="591" y="33" width="102" height="32" class="nonterminal"/>
            <text class="nonterminal" x="601" y="53">m_notesuffix</text></a><a xmlns:xlink="http://www.w3.org/1999/xlink" xlink:href="#bracket" xlink:title="bracket">
            <rect x="735" y="67" width="66" height="32"/>
            <rect x="733" y="65" width="66" height="32" class="nonterminal"/>
            <text class="nonterminal" x="743" y="85">bracket</text></a><a xmlns:xlink="http://www.w3.org/1999/xlink" xlink:href="#parenthe" xlink:title="parenthe">
            <rect x="735" y="111" width="78" height="32"/>
            <rect x="733" y="109" width="78" height="32" class="nonterminal"/>
            <text class="nonterminal" x="743" y="129">parenthe</text></a><a xmlns:xlink="http://www.w3.org/1999/xlink" xlink:href="#stem_direction" xlink:title="stem_direction">
            <rect x="713" y="197" width="114" height="32"/>
            <rect x="711" y="195" width="114" height="32" class="nonterminal"/>
            <text class="nonterminal" x="721" y="215">stem_direction</text></a><svg:path xmlns:svg="http://www.w3.org/2000/svg" class="line" d="m17 17 h2 m0 0 h10 m84 0 h10 m20 0 h10 m0 0 h70 m-100 0 h20 m80 0 h20 m-120 0 q10 0 10 10 m100 0 q0 -10 10 -10 m-110 10 v12 m100 0 v-12 m-100 12 q0 10 10 10 m80 0 q10 0 10 -10 m-90 10 h10 m60 0 h10 m40 -32 h10 m0 0 h108 m-138 0 h20 m118 0 h20 m-158 0 q10 0 10 10 m138 0 q0 -10 10 -10 m-148 10 v12 m138 0 v-12 m-138 12 q0 10 10 10 m118 0 q10 0 10 -10 m-128 10 h10 m84 0 h10 m0 0 h14 m-128 -10 v20 m138 0 v-20 m-138 20 v24 m138 0 v-24 m-138 24 q0 10 10 10 m118 0 q10 0 10 -10 m-128 10 h10 m98 0 h10 m40 -76 h10 m0 0 h40 m-70 0 h20 m50 0 h20 m-90 0 q10 0 10 10 m70 0 q0 -10 10 -10 m-80 10 v12 m70 0 v-12 m-70 12 q0 10 10 10 m50 0 q10 0 10 -10 m-60 10 h10 m30 0 h10 m20 -32 h10 m50 0 h10 m20 0 h10 m0 0 h250 m-280 0 h20 m260 0 h20 m-300 0 q10 0 10 10 m280 0 q0 -10 10 -10 m-290 10 v12 m280 0 v-12 m-280 12 q0 10 10 10 m260 0 q10 0 10 -10 m-270 10 h10 m102 0 h10 m20 0 h10 m0 0 h88 m-118 0 h20 m98 0 h20 m-138 0 q10 0 10 10 m118 0 q0 -10 10 -10 m-128 10 v12 m118 0 v-12 m-118 12 q0 10 10 10 m98 0 q10 0 10 -10 m-108 10 h10 m66 0 h10 m0 0 h12 m-108 -10 v20 m118 0 v-20 m-118 20 v24 m118 0 v-24 m-118 24 q0 10 10 10 m98 0 q10 0 10 -10 m-108 10 h10 m78 0 h10 m42 -108 l2 0 m2 0 l2 0 m2 0 l2 0 m-204 162 l2 0 m2 0 l2 0 m2 0 l2 0 m22 0 h10 m0 0 h124 m-154 0 h20 m134 0 h20 m-174 0 q10 0 10 10 m154 0 q0 -10 10 -10 m-164 10 v12 m154 0 v-12 m-154 12 q0 10 10 10 m134 0 q10 0 10 -10 m-144 10 h10 m114 0 h10 m23 -32 h-3"/>
         <polygon points="865 179 873 175 873 183"/>
         <polygon points="865 179 857 175 857 183"/></svg>
