<svg xmlns="http://www.w3.org/2000/svg">
         <defs>
            <style type="text/css">
    @namespace "http://www.w3.org/2000/svg";
    .line                 {fill: none; stroke: #332900; stroke-width: 1;}
    .bold-line            {stroke: #141000; shape-rendering: crispEdges; stroke-width: 2;}
    .thin-line            {stroke: #1F1800; shape-rendering: crispEdges}
    .filled               {fill: #332900; stroke: none;}
    text.terminal         {font-family: Verdana, Sans-serif;
                            font-size: 12px;
                            fill: #141000;
                            font-weight: bold;
                          }
    text.nonterminal      {font-family: Verdana, Sans-serif;
                            font-size: 12px;
                            fill: #1A1400;
                            font-weight: normal;
                          }
    text.regexp           {font-family: Verdana, Sans-serif;
                            font-size: 12px;
                            fill: #1F1800;
                            font-weight: normal;
                          }
    rect, circle, polygon {fill: #332900; stroke: #332900;}
    rect.terminal         {fill: #FFDB4D; stroke: #332900; stroke-width: 1;}
    rect.nonterminal      {fill: #FFEC9E; stroke: #332900; stroke-width: 1;}
    rect.text             {fill: none; stroke: none;}
    polygon.regexp        {fill: #FFF4C7; stroke: #332900; stroke-width: 1;}
  </style>
         </defs>
         <polygon points="9 17 1 13 1 21"/>
         <polygon points="17 17 9 13 9 21"/>
         <rect x="31" y="3" width="28" height="32" rx="10"/>
         <rect x="29" y="1" width="28" height="32" class="terminal" rx="10"/>
         <text class="terminal" x="39" y="21">*</text>
         <rect x="79" y="3" width="28" height="32" rx="10"/>
         <rect x="77" y="1" width="28" height="32" class="terminal" rx="10"/>
         <text class="terminal" x="87" y="21">*</text>
         <rect x="127" y="3" width="56" height="32" rx="10"/>
         <rect x="125" y="1" width="56" height="32" class="terminal" rx="10"/>
         <text class="terminal" x="135" y="21">mens</text><a xmlns:xlink="http://www.w3.org/1999/xlink" xlink:href="#mastercleff" xlink:title="mastercleff">
            <rect x="203" y="3" width="90" height="32"/>
            <rect x="201" y="1" width="90" height="32" class="nonterminal"/>
            <text class="nonterminal" x="211" y="21">mastercleff</text></a><a xmlns:xlink="http://www.w3.org/1999/xlink" xlink:href="#keysignature" xlink:title="keysignature">
            <rect x="333" y="35" width="102" height="32"/>
            <rect x="331" y="33" width="102" height="32" class="nonterminal"/>
            <text class="nonterminal" x="341" y="53">keysignature</text></a><a xmlns:xlink="http://www.w3.org/1999/xlink" xlink:href="#m_timesignature" xlink:title="m_timesignature">
            <rect x="495" y="35" width="128" height="32"/>
            <rect x="493" y="33" width="128" height="32" class="nonterminal"/>
            <text class="nonterminal" x="503" y="53">m_timesignature</text></a><a xmlns:xlink="http://www.w3.org/1999/xlink" xlink:href="#m_musicalcontent" xlink:title="m_musicalcontent">
            <rect x="663" y="3" width="134" height="32"/>
            <rect x="661" y="1" width="134" height="32" class="nonterminal"/>
            <text class="nonterminal" x="671" y="21">m_musicalcontent</text></a><rect x="817" y="3" width="34" height="32" rx="10"/>
         <rect x="815" y="1" width="34" height="32" class="terminal" rx="10"/>
         <text class="terminal" x="825" y="21">*-</text>
         <svg:path xmlns:svg="http://www.w3.org/2000/svg" class="line" d="m17 17 h2 m0 0 h10 m28 0 h10 m0 0 h10 m28 0 h10 m0 0 h10 m56 0 h10 m0 0 h10 m90 0 h10 m20 0 h10 m0 0 h112 m-142 0 h20 m122 0 h20 m-162 0 q10 0 10 10 m142 0 q0 -10 10 -10 m-152 10 v12 m142 0 v-12 m-142 12 q0 10 10 10 m122 0 q10 0 10 -10 m-132 10 h10 m102 0 h10 m40 -32 h10 m0 0 h138 m-168 0 h20 m148 0 h20 m-188 0 q10 0 10 10 m168 0 q0 -10 10 -10 m-178 10 v12 m168 0 v-12 m-168 12 q0 10 10 10 m148 0 q10 0 10 -10 m-158 10 h10 m128 0 h10 m20 -32 h10 m134 0 h10 m0 0 h10 m34 0 h10 m3 0 h-3"/>
         <polygon points="869 17 877 13 877 21"/>
         <polygon points="869 17 861 13 861 21"/></svg>
