<svg xmlns="http://www.w3.org/2000/svg">
         <defs>
            <style type="text/css">
    @namespace "http://www.w3.org/2000/svg";
    .line                 {fill: none; stroke: #332900; stroke-width: 1;}
    .bold-line            {stroke: #141000; shape-rendering: crispEdges; stroke-width: 2;}
    .thin-line            {stroke: #1F1800; shape-rendering: crispEdges}
    .filled               {fill: #332900; stroke: none;}
    text.terminal         {font-family: Verdana, Sans-serif;
                            font-size: 12px;
                            fill: #141000;
                            font-weight: bold;
                          }
    text.nonterminal      {font-family: Verdana, Sans-serif;
                            font-size: 12px;
                            fill: #1A1400;
                            font-weight: normal;
                          }
    text.regexp           {font-family: Verdana, Sans-serif;
                            font-size: 12px;
                            fill: #1F1800;
                            font-weight: normal;
                          }
    rect, circle, polygon {fill: #332900; stroke: #332900;}
    rect.terminal         {fill: #FFDB4D; stroke: #332900; stroke-width: 1;}
    rect.nonterminal      {fill: #FFEC9E; stroke: #332900; stroke-width: 1;}
    rect.text             {fill: none; stroke: none;}
    polygon.regexp        {fill: #FFF4C7; stroke: #332900; stroke-width: 1;}
  </style>
         </defs>
         <polygon points="9 17 1 13 1 21"/>
         <polygon points="17 17 9 13 9 21"/>
         <rect x="51" y="3" width="24" height="32" rx="10"/>
         <rect x="49" y="1" width="24" height="32" class="terminal" rx="10"/>
         <text class="terminal" x="59" y="21">'</text>
         <rect x="115" y="35" width="30" height="32" rx="10"/>
         <rect x="113" y="33" width="30" height="32" class="terminal" rx="10"/>
         <text class="terminal" x="123" y="53">~</text>
         <rect x="115" y="79" width="30" height="32" rx="10"/>
         <rect x="113" y="77" width="30" height="32" class="terminal" rx="10"/>
         <text class="terminal" x="123" y="97">^</text>
         <rect x="51" y="123" width="30" height="32" rx="10"/>
         <rect x="49" y="121" width="30" height="32" class="terminal" rx="10"/>
         <text class="terminal" x="59" y="141">^</text>
         <rect x="121" y="155" width="30" height="32" rx="10"/>
         <rect x="119" y="153" width="30" height="32" class="terminal" rx="10"/>
         <text class="terminal" x="129" y="173">^</text>
         <rect x="51" y="199" width="28" height="32" rx="10"/>
         <rect x="49" y="197" width="28" height="32" class="terminal" rx="10"/>
         <text class="terminal" x="59" y="217">`</text>
         <rect x="51" y="243" width="30" height="32" rx="10"/>
         <rect x="49" y="241" width="30" height="32" class="terminal" rx="10"/>
         <text class="terminal" x="59" y="261">~</text>
         <rect x="51" y="287" width="24" height="32" rx="10"/>
         <rect x="49" y="285" width="24" height="32" class="terminal" rx="10"/>
         <text class="terminal" x="59" y="305">;</text>
         <svg:path xmlns:svg="http://www.w3.org/2000/svg" class="line" d="m17 17 h2 m20 0 h10 m24 0 h10 m20 0 h10 m0 0 h40 m-70 0 h20 m50 0 h20 m-90 0 q10 0 10 10 m70 0 q0 -10 10 -10 m-80 10 v12 m70 0 v-12 m-70 12 q0 10 10 10 m50 0 q10 0 10 -10 m-60 10 h10 m30 0 h10 m-60 -10 v20 m70 0 v-20 m-70 20 v24 m70 0 v-24 m-70 24 q0 10 10 10 m50 0 q10 0 10 -10 m-60 10 h10 m30 0 h10 m20 -76 h6 m-160 0 h20 m140 0 h20 m-180 0 q10 0 10 10 m160 0 q0 -10 10 -10 m-170 10 v100 m160 0 v-100 m-160 100 q0 10 10 10 m140 0 q10 0 10 -10 m-150 10 h10 m30 0 h10 m20 0 h10 m0 0 h40 m-70 0 h20 m50 0 h20 m-90 0 q10 0 10 10 m70 0 q0 -10 10 -10 m-80 10 v12 m70 0 v-12 m-70 12 q0 10 10 10 m50 0 q10 0 10 -10 m-60 10 h10 m30 0 h10 m-130 -42 v20 m160 0 v-20 m-160 20 v56 m160 0 v-56 m-160 56 q0 10 10 10 m140 0 q10 0 10 -10 m-150 10 h10 m28 0 h10 m0 0 h92 m-150 -10 v20 m160 0 v-20 m-160 20 v24 m160 0 v-24 m-160 24 q0 10 10 10 m140 0 q10 0 10 -10 m-150 10 h10 m30 0 h10 m0 0 h90 m-150 -10 v20 m160 0 v-20 m-160 20 v24 m160 0 v-24 m-160 24 q0 10 10 10 m140 0 q10 0 10 -10 m-150 10 h10 m24 0 h10 m0 0 h96 m23 -284 h-3"/>
         <polygon points="209 17 217 13 217 21"/>
         <polygon points="209 17 201 13 201 21"/></svg>
