<svg xmlns="http://www.w3.org/2000/svg">
         <defs>
            <style type="text/css">
    @namespace "http://www.w3.org/2000/svg";
    .line                 {fill: none; stroke: #332900; stroke-width: 1;}
    .bold-line            {stroke: #141000; shape-rendering: crispEdges; stroke-width: 2;}
    .thin-line            {stroke: #1F1800; shape-rendering: crispEdges}
    .filled               {fill: #332900; stroke: none;}
    text.terminal         {font-family: Verdana, Sans-serif;
                            font-size: 12px;
                            fill: #141000;
                            font-weight: bold;
                          }
    text.nonterminal      {font-family: Verdana, Sans-serif;
                            font-size: 12px;
                            fill: #1A1400;
                            font-weight: normal;
                          }
    text.regexp           {font-family: Verdana, Sans-serif;
                            font-size: 12px;
                            fill: #1F1800;
                            font-weight: normal;
                          }
    rect, circle, polygon {fill: #332900; stroke: #332900;}
    rect.terminal         {fill: #FFDB4D; stroke: #332900; stroke-width: 1;}
    rect.nonterminal      {fill: #FFEC9E; stroke: #332900; stroke-width: 1;}
    rect.text             {fill: none; stroke: none;}
    polygon.regexp        {fill: #FFF4C7; stroke: #332900; stroke-width: 1;}
  </style>
         </defs>
         <polygon points="9 51 1 47 1 55"/>
         <polygon points="17 51 9 47 9 55"/>
         <rect x="51" y="37" width="30" height="32" rx="10"/>
         <rect x="49" y="35" width="30" height="32" class="terminal" rx="10"/>
         <text class="terminal" x="59" y="55">=</text><a xmlns:xlink="http://www.w3.org/1999/xlink" xlink:href="#digit" xlink:title="digit">
            <rect x="121" y="3" width="48" height="32"/>
            <rect x="119" y="1" width="48" height="32" class="nonterminal"/>
            <text class="nonterminal" x="129" y="21">digit</text></a><rect x="229" y="69" width="26" height="32" rx="10"/>
         <rect x="227" y="67" width="26" height="32" class="terminal" rx="10"/>
         <text class="terminal" x="237" y="87">-</text>
         <rect x="71" y="147" width="30" height="32" rx="10"/>
         <rect x="69" y="145" width="30" height="32" class="terminal" rx="10"/>
         <text class="terminal" x="79" y="165">=</text><a xmlns:xlink="http://www.w3.org/1999/xlink" xlink:href="#digit" xlink:title="digit">
            <rect x="141" y="113" width="48" height="32"/>
            <rect x="139" y="111" width="48" height="32" class="nonterminal"/>
            <text class="nonterminal" x="149" y="131">digit</text></a><a xmlns:xlink="http://www.w3.org/1999/xlink" xlink:href="#doubleBarline" xlink:title="doubleBarline">
            <rect x="269" y="147" width="106" height="32"/>
            <rect x="267" y="145" width="106" height="32" class="nonterminal"/>
            <text class="nonterminal" x="277" y="165">doubleBarline</text></a><a xmlns:xlink="http://www.w3.org/1999/xlink" xlink:href="#leftRepeatBarline" xlink:title="leftRepeatBarline">
            <rect x="269" y="191" width="130" height="32"/>
            <rect x="267" y="189" width="130" height="32" class="nonterminal"/>
            <text class="nonterminal" x="277" y="209">leftRepeatBarline</text></a><a xmlns:xlink="http://www.w3.org/1999/xlink" xlink:href="#rightRepeatBarline" xlink:title="rightRepeatBarline">
            <rect x="269" y="235" width="138" height="32"/>
            <rect x="267" y="233" width="138" height="32" class="nonterminal"/>
            <text class="nonterminal" x="277" y="253">rightRepeatBarline</text></a><a xmlns:xlink="http://www.w3.org/1999/xlink" xlink:href="#doubleRepeatBarline" xlink:title="doubleRepeatBarline">
            <rect x="269" y="279" width="152" height="32"/>
            <rect x="267" y="277" width="152" height="32" class="nonterminal"/>
            <text class="nonterminal" x="277" y="297">doubleRepeatBarline</text></a><a xmlns:xlink="http://www.w3.org/1999/xlink" xlink:href="#endBarline" xlink:title="endBarline">
            <rect x="51" y="323" width="88" height="32"/>
            <rect x="49" y="321" width="88" height="32" class="nonterminal"/>
            <text class="nonterminal" x="59" y="341">endBarline</text></a><svg:path xmlns:svg="http://www.w3.org/2000/svg" class="line" d="m17 51 h2 m20 0 h10 m30 0 h10 m20 0 h10 m0 0 h58 m-88 0 l20 0 m-1 0 q-9 0 -9 -10 l0 -14 q0 -10 10 -10 m68 34 l20 0 m-20 0 q10 0 10 -10 l0 -14 q0 -10 -10 -10 m-68 0 h10 m48 0 h10 m40 34 h10 m0 0 h36 m-66 0 h20 m46 0 h20 m-86 0 q10 0 10 10 m66 0 q0 -10 10 -10 m-76 10 v12 m66 0 v-12 m-66 12 q0 10 10 10 m46 0 q10 0 10 -10 m-56 10 h10 m26 0 h10 m20 -32 h166 m-430 0 h20 m410 0 h20 m-450 0 q10 0 10 10 m430 0 q0 -10 10 -10 m-440 10 v90 m430 0 v-90 m-430 90 q0 10 10 10 m410 0 q10 0 10 -10 m-400 10 h10 m30 0 h10 m20 0 h10 m0 0 h58 m-88 0 l20 0 m-1 0 q-9 0 -9 -10 l0 -14 q0 -10 10 -10 m68 34 l20 0 m-20 0 q10 0 10 -10 l0 -14 q0 -10 -10 -10 m-68 0 h10 m48 0 h10 m-158 34 h20 m158 0 h20 m-198 0 q10 0 10 10 m178 0 q0 -10 10 -10 m-188 10 v14 m178 0 v-14 m-178 14 q0 10 10 10 m158 0 q10 0 10 -10 m-168 10 h10 m0 0 h148 m40 -34 h10 m106 0 h10 m0 0 h46 m-192 0 h20 m172 0 h20 m-212 0 q10 0 10 10 m192 0 q0 -10 10 -10 m-202 10 v24 m192 0 v-24 m-192 24 q0 10 10 10 m172 0 q10 0 10 -10 m-182 10 h10 m130 0 h10 m0 0 h22 m-182 -10 v20 m192 0 v-20 m-192 20 v24 m192 0 v-24 m-192 24 q0 10 10 10 m172 0 q10 0 10 -10 m-182 10 h10 m138 0 h10 m0 0 h14 m-182 -10 v20 m192 0 v-20 m-192 20 v24 m192 0 v-24 m-192 24 q0 10 10 10 m172 0 q10 0 10 -10 m-182 10 h10 m152 0 h10 m-400 -142 v20 m430 0 v-20 m-430 20 v156 m430 0 v-156 m-430 156 q0 10 10 10 m410 0 q10 0 10 -10 m-420 10 h10 m88 0 h10 m0 0 h302 m23 -286 h-3"/>
         <polygon points="479 51 487 47 487 55"/>
         <polygon points="479 51 471 47 471 55"/></svg>
