<svg xmlns="http://www.w3.org/2000/svg">
         <defs>
            <style type="text/css">
    @namespace "http://www.w3.org/2000/svg";
    .line                 {fill: none; stroke: #332900; stroke-width: 1;}
    .bold-line            {stroke: #141000; shape-rendering: crispEdges; stroke-width: 2;}
    .thin-line            {stroke: #1F1800; shape-rendering: crispEdges}
    .filled               {fill: #332900; stroke: none;}
    text.terminal         {font-family: Verdana, Sans-serif;
                            font-size: 12px;
                            fill: #141000;
                            font-weight: bold;
                          }
    text.nonterminal      {font-family: Verdana, Sans-serif;
                            font-size: 12px;
                            fill: #1A1400;
                            font-weight: normal;
                          }
    text.regexp           {font-family: Verdana, Sans-serif;
                            font-size: 12px;
                            fill: #1F1800;
                            font-weight: normal;
                          }
    rect, circle, polygon {fill: #332900; stroke: #332900;}
    rect.terminal         {fill: #FFDB4D; stroke: #332900; stroke-width: 1;}
    rect.nonterminal      {fill: #FFEC9E; stroke: #332900; stroke-width: 1;}
    rect.text             {fill: none; stroke: none;}
    polygon.regexp        {fill: #FFF4C7; stroke: #332900; stroke-width: 1;}
  </style>
         </defs>
         <polygon points="9 51 1 47 1 55"/>
         <polygon points="17 51 9 47 9 55"/><a xmlns:xlink="http://www.w3.org/1999/xlink" xlink:href="#note" xlink:title="note">
            <rect x="51" y="37" width="48" height="32"/>
            <rect x="49" y="35" width="48" height="32" class="nonterminal"/>
            <text class="nonterminal" x="59" y="55">note</text></a><a xmlns:xlink="http://www.w3.org/1999/xlink" xlink:href="#chord" xlink:title="chord">
            <rect x="51" y="81" width="54" height="32"/>
            <rect x="49" y="79" width="54" height="32" class="nonterminal"/>
            <text class="nonterminal" x="59" y="99">chord</text></a><rect x="185" y="3" width="28" height="32" rx="10"/>
         <rect x="183" y="1" width="28" height="32" class="terminal" rx="10"/>
         <text class="terminal" x="193" y="21">L</text>
         <rect x="273" y="37" width="28" height="32" rx="10"/>
         <rect x="271" y="35" width="28" height="32" class="terminal" rx="10"/>
         <text class="terminal" x="281" y="55">L</text><a xmlns:xlink="http://www.w3.org/1999/xlink" xlink:href="#partial_beaming" xlink:title="partial_beaming">
            <rect x="273" y="81" width="124" height="32"/>
            <rect x="271" y="79" width="124" height="32" class="nonterminal"/>
            <text class="nonterminal" x="281" y="99">partial_beaming</text></a><rect x="185" y="125" width="26" height="32" rx="10"/>
         <rect x="183" y="123" width="26" height="32" class="terminal" rx="10"/>
         <text class="terminal" x="193" y="143">J</text>
         <rect x="271" y="159" width="26" height="32" rx="10"/>
         <rect x="269" y="157" width="26" height="32" class="terminal" rx="10"/>
         <text class="terminal" x="279" y="177">J</text><a xmlns:xlink="http://www.w3.org/1999/xlink" xlink:href="#partial_beaming" xlink:title="partial_beaming">
            <rect x="271" y="203" width="124" height="32"/>
            <rect x="269" y="201" width="124" height="32" class="nonterminal"/>
            <text class="nonterminal" x="279" y="221">partial_beaming</text></a><svg:path xmlns:svg="http://www.w3.org/2000/svg" class="line" d="m17 51 h2 m20 0 h10 m48 0 h10 m0 0 h6 m-94 0 h20 m74 0 h20 m-114 0 q10 0 10 10 m94 0 q0 -10 10 -10 m-104 10 v24 m94 0 v-24 m-94 24 q0 10 10 10 m74 0 q10 0 10 -10 m-84 10 h10 m54 0 h10 m60 -44 h10 m0 0 h38 m-68 0 l20 0 m-1 0 q-9 0 -9 -10 l0 -14 q0 -10 10 -10 m48 34 l20 0 m-20 0 q10 0 10 -10 l0 -14 q0 -10 -10 -10 m-48 0 h10 m28 0 h10 m40 34 h10 m28 0 h10 m0 0 h96 m-164 0 h20 m144 0 h20 m-184 0 q10 0 10 10 m164 0 q0 -10 10 -10 m-174 10 v24 m164 0 v-24 m-164 24 q0 10 10 10 m144 0 q10 0 10 -10 m-154 10 h10 m124 0 h10 m-272 -44 h20 m272 0 h20 m-312 0 q10 0 10 10 m292 0 q0 -10 10 -10 m-302 10 v102 m292 0 v-102 m-292 102 q0 10 10 10 m272 0 q10 0 10 -10 m-262 10 h10 m0 0 h36 m-66 0 l20 0 m-1 0 q-9 0 -9 -10 l0 -14 q0 -10 10 -10 m46 34 l20 0 m-20 0 q10 0 10 -10 l0 -14 q0 -10 -10 -10 m-46 0 h10 m26 0 h10 m40 34 h10 m26 0 h10 m0 0 h98 m-164 0 h20 m144 0 h20 m-184 0 q10 0 10 10 m164 0 q0 -10 10 -10 m-174 10 v24 m164 0 v-24 m-164 24 q0 10 10 10 m144 0 q10 0 10 -10 m-154 10 h10 m124 0 h10 m20 -44 h2 m23 -122 h-3"/>
         <polygon points="455 51 463 47 463 55"/>
         <polygon points="455 51 447 47 447 55"/></svg>
