<svg xmlns="http://www.w3.org/2000/svg">
         <defs>
            <style type="text/css">
    @namespace "http://www.w3.org/2000/svg";
    .line                 {fill: none; stroke: #332900; stroke-width: 1;}
    .bold-line            {stroke: #141000; shape-rendering: crispEdges; stroke-width: 2;}
    .thin-line            {stroke: #1F1800; shape-rendering: crispEdges}
    .filled               {fill: #332900; stroke: none;}
    text.terminal         {font-family: Verdana, Sans-serif;
                            font-size: 12px;
                            fill: #141000;
                            font-weight: bold;
                          }
    text.nonterminal      {font-family: Verdana, Sans-serif;
                            font-size: 12px;
                            fill: #1A1400;
                            font-weight: normal;
                          }
    text.regexp           {font-family: Verdana, Sans-serif;
                            font-size: 12px;
                            fill: #1F1800;
                            font-weight: normal;
                          }
    rect, circle, polygon {fill: #332900; stroke: #332900;}
    rect.terminal         {fill: #FFDB4D; stroke: #332900; stroke-width: 1;}
    rect.nonterminal      {fill: #FFEC9E; stroke: #332900; stroke-width: 1;}
    rect.text             {fill: none; stroke: none;}
    polygon.regexp        {fill: #FFF4C7; stroke: #332900; stroke-width: 1;}
  </style>
         </defs>
         <polygon points="9 33 1 29 1 37"/>
         <polygon points="17 33 9 29 9 37"/><a xmlns:xlink="http://www.w3.org/1999/xlink" xlink:href="#mastercleff" xlink:title="mastercleff">
            <rect x="71" y="19" width="90" height="32"/>
            <rect x="69" y="17" width="90" height="32" class="nonterminal"/>
            <text class="nonterminal" x="79" y="37">mastercleff</text></a><a xmlns:xlink="http://www.w3.org/1999/xlink" xlink:href="#timesignature" xlink:title="timesignature">
            <rect x="71" y="63" width="108" height="32"/>
            <rect x="69" y="61" width="108" height="32" class="nonterminal"/>
            <text class="nonterminal" x="79" y="81">timesignature</text></a><a xmlns:xlink="http://www.w3.org/1999/xlink" xlink:href="#keysignature" xlink:title="keysignature">
            <rect x="71" y="107" width="102" height="32"/>
            <rect x="69" y="105" width="102" height="32" class="nonterminal"/>
            <text class="nonterminal" x="79" y="125">keysignature</text></a><svg:path xmlns:svg="http://www.w3.org/2000/svg" class="line" d="m17 33 h2 m40 0 h10 m90 0 h10 m0 0 h18 m-148 0 h20 m128 0 h20 m-168 0 q10 0 10 10 m148 0 q0 -10 10 -10 m-158 10 v24 m148 0 v-24 m-148 24 q0 10 10 10 m128 0 q10 0 10 -10 m-138 10 h10 m108 0 h10 m-138 -10 v20 m148 0 v-20 m-148 20 v24 m148 0 v-24 m-148 24 q0 10 10 10 m128 0 q10 0 10 -10 m-138 10 h10 m102 0 h10 m0 0 h6 m-168 -88 l20 0 m-1 0 q-9 0 -9 -10 l0 -12 q0 -10 10 -10 m168 32 l20 0 m-20 0 q10 0 10 -10 l0 -12 q0 -10 -10 -10 m-168 0 h10 m0 0 h158 m23 32 h-3"/>
         <polygon points="237 33 245 29 245 37"/>
         <polygon points="237 33 229 29 229 37"/></svg>
