<svg xmlns="http://www.w3.org/2000/svg">
         <defs>
            <style type="text/css">
    @namespace "http://www.w3.org/2000/svg";
    .line                 {fill: none; stroke: #332900; stroke-width: 1;}
    .bold-line            {stroke: #141000; shape-rendering: crispEdges; stroke-width: 2;}
    .thin-line            {stroke: #1F1800; shape-rendering: crispEdges}
    .filled               {fill: #332900; stroke: none;}
    text.terminal         {font-family: Verdana, Sans-serif;
                            font-size: 12px;
                            fill: #141000;
                            font-weight: bold;
                          }
    text.nonterminal      {font-family: Verdana, Sans-serif;
                            font-size: 12px;
                            fill: #1A1400;
                            font-weight: normal;
                          }
    text.regexp           {font-family: Verdana, Sans-serif;
                            font-size: 12px;
                            fill: #1F1800;
                            font-weight: normal;
                          }
    rect, circle, polygon {fill: #332900; stroke: #332900;}
    rect.terminal         {fill: #FFDB4D; stroke: #332900; stroke-width: 1;}
    rect.nonterminal      {fill: #FFEC9E; stroke: #332900; stroke-width: 1;}
    rect.text             {fill: none; stroke: none;}
    polygon.regexp        {fill: #FFF4C7; stroke: #332900; stroke-width: 1;}
  </style>
         </defs>
         <polygon points="9 17 1 13 1 21"/>
         <polygon points="17 17 9 13 9 21"/>
         <rect x="51" y="3" width="38" height="32" rx="10"/>
         <rect x="49" y="1" width="38" height="32" class="terminal" rx="10"/>
         <text class="terminal" x="59" y="21">G2</text>
         <rect x="51" y="47" width="36" height="32" rx="10"/>
         <rect x="49" y="45" width="36" height="32" class="terminal" rx="10"/>
         <text class="terminal" x="59" y="65">F2</text>
         <rect x="51" y="91" width="36" height="32" rx="10"/>
         <rect x="49" y="89" width="36" height="32" class="terminal" rx="10"/>
         <text class="terminal" x="59" y="109">F3</text>
         <rect x="51" y="135" width="36" height="32" rx="10"/>
         <rect x="49" y="133" width="36" height="32" class="terminal" rx="10"/>
         <text class="terminal" x="59" y="153">F4</text>
         <rect x="51" y="179" width="36" height="32" rx="10"/>
         <rect x="49" y="177" width="36" height="32" class="terminal" rx="10"/>
         <text class="terminal" x="59" y="197">F5</text>
         <rect x="51" y="223" width="38" height="32" rx="10"/>
         <rect x="49" y="221" width="38" height="32" class="terminal" rx="10"/>
         <text class="terminal" x="59" y="241">C4</text>
         <rect x="51" y="267" width="38" height="32" rx="10"/>
         <rect x="49" y="265" width="38" height="32" class="terminal" rx="10"/>
         <text class="terminal" x="59" y="285">C3</text>
         <rect x="51" y="311" width="38" height="32" rx="10"/>
         <rect x="49" y="309" width="38" height="32" class="terminal" rx="10"/>
         <text class="terminal" x="59" y="329">C2</text>
         <rect x="51" y="355" width="38" height="32" rx="10"/>
         <rect x="49" y="353" width="38" height="32" class="terminal" rx="10"/>
         <text class="terminal" x="59" y="373">C1</text>
         <rect x="51" y="399" width="38" height="32" rx="10"/>
         <rect x="49" y="397" width="38" height="32" class="terminal" rx="10"/>
         <text class="terminal" x="59" y="417">G1</text>
         <svg:path xmlns:svg="http://www.w3.org/2000/svg" class="line" d="m17 17 h2 m20 0 h10 m38 0 h10 m-78 0 h20 m58 0 h20 m-98 0 q10 0 10 10 m78 0 q0 -10 10 -10 m-88 10 v24 m78 0 v-24 m-78 24 q0 10 10 10 m58 0 q10 0 10 -10 m-68 10 h10 m36 0 h10 m0 0 h2 m-68 -10 v20 m78 0 v-20 m-78 20 v24 m78 0 v-24 m-78 24 q0 10 10 10 m58 0 q10 0 10 -10 m-68 10 h10 m36 0 h10 m0 0 h2 m-68 -10 v20 m78 0 v-20 m-78 20 v24 m78 0 v-24 m-78 24 q0 10 10 10 m58 0 q10 0 10 -10 m-68 10 h10 m36 0 h10 m0 0 h2 m-68 -10 v20 m78 0 v-20 m-78 20 v24 m78 0 v-24 m-78 24 q0 10 10 10 m58 0 q10 0 10 -10 m-68 10 h10 m36 0 h10 m0 0 h2 m-68 -10 v20 m78 0 v-20 m-78 20 v24 m78 0 v-24 m-78 24 q0 10 10 10 m58 0 q10 0 10 -10 m-68 10 h10 m38 0 h10 m-68 -10 v20 m78 0 v-20 m-78 20 v24 m78 0 v-24 m-78 24 q0 10 10 10 m58 0 q10 0 10 -10 m-68 10 h10 m38 0 h10 m-68 -10 v20 m78 0 v-20 m-78 20 v24 m78 0 v-24 m-78 24 q0 10 10 10 m58 0 q10 0 10 -10 m-68 10 h10 m38 0 h10 m-68 -10 v20 m78 0 v-20 m-78 20 v24 m78 0 v-24 m-78 24 q0 10 10 10 m58 0 q10 0 10 -10 m-68 10 h10 m38 0 h10 m-68 -10 v20 m78 0 v-20 m-78 20 v24 m78 0 v-24 m-78 24 q0 10 10 10 m58 0 q10 0 10 -10 m-68 10 h10 m38 0 h10 m23 -396 h-3"/>
         <polygon points="127 17 135 13 135 21"/>
         <polygon points="127 17 119 13 119 21"/></svg>
