<svg xmlns="http://www.w3.org/2000/svg">
         <defs>
            <style type="text/css">
    @namespace "http://www.w3.org/2000/svg";
    .line                 {fill: none; stroke: #332900; stroke-width: 1;}
    .bold-line            {stroke: #141000; shape-rendering: crispEdges; stroke-width: 2;}
    .thin-line            {stroke: #1F1800; shape-rendering: crispEdges}
    .filled               {fill: #332900; stroke: none;}
    text.terminal         {font-family: Verdana, Sans-serif;
                            font-size: 12px;
                            fill: #141000;
                            font-weight: bold;
                          }
    text.nonterminal      {font-family: Verdana, Sans-serif;
                            font-size: 12px;
                            fill: #1A1400;
                            font-weight: normal;
                          }
    text.regexp           {font-family: Verdana, Sans-serif;
                            font-size: 12px;
                            fill: #1F1800;
                            font-weight: normal;
                          }
    rect, circle, polygon {fill: #332900; stroke: #332900;}
    rect.terminal         {fill: #FFDB4D; stroke: #332900; stroke-width: 1;}
    rect.nonterminal      {fill: #FFEC9E; stroke: #332900; stroke-width: 1;}
    rect.text             {fill: none; stroke: none;}
    polygon.regexp        {fill: #FFF4C7; stroke: #332900; stroke-width: 1;}
  </style>
         </defs>
         <polygon points="9 17 1 13 1 21"/>
         <polygon points="17 17 9 13 9 21"/>
         <rect x="51" y="3" width="26" height="32" rx="10"/>
         <rect x="49" y="1" width="26" height="32" class="terminal" rx="10"/>
         <text class="terminal" x="59" y="21">c</text>
         <rect x="51" y="47" width="28" height="32" rx="10"/>
         <rect x="49" y="45" width="28" height="32" class="terminal" rx="10"/>
         <text class="terminal" x="59" y="65">C</text>
         <rect x="139" y="35" width="26" height="32" rx="10"/>
         <rect x="137" y="33" width="26" height="32" class="terminal" rx="10"/>
         <text class="terminal" x="147" y="53">|</text>
         <rect x="139" y="79" width="24" height="32" rx="10"/>
         <rect x="137" y="77" width="24" height="32" class="terminal" rx="10"/>
         <text class="terminal" x="147" y="97">.</text>
         <rect x="139" y="123" width="28" height="32" rx="10"/>
         <rect x="137" y="121" width="28" height="32" class="terminal" rx="10"/>
         <text class="terminal" x="147" y="141">R</text>
         <rect x="139" y="167" width="26" height="32" rx="10"/>
         <rect x="137" y="165" width="26" height="32" class="terminal" rx="10"/>
         <text class="terminal" x="147" y="185">r</text>
         <svg:path xmlns:svg="http://www.w3.org/2000/svg" class="line" d="m17 17 h2 m20 0 h10 m26 0 h10 m0 0 h2 m-68 0 h20 m48 0 h20 m-88 0 q10 0 10 10 m68 0 q0 -10 10 -10 m-78 10 v24 m68 0 v-24 m-68 24 q0 10 10 10 m48 0 q10 0 10 -10 m-58 10 h10 m28 0 h10 m40 -44 h10 m0 0 h38 m-68 0 h20 m48 0 h20 m-88 0 q10 0 10 10 m68 0 q0 -10 10 -10 m-78 10 v12 m68 0 v-12 m-68 12 q0 10 10 10 m48 0 q10 0 10 -10 m-58 10 h10 m26 0 h10 m0 0 h2 m-58 -10 v20 m68 0 v-20 m-68 20 v24 m68 0 v-24 m-68 24 q0 10 10 10 m48 0 q10 0 10 -10 m-58 10 h10 m24 0 h10 m0 0 h4 m-58 -10 v20 m68 0 v-20 m-68 20 v24 m68 0 v-24 m-68 24 q0 10 10 10 m48 0 q10 0 10 -10 m-58 10 h10 m28 0 h10 m-58 -10 v20 m68 0 v-20 m-68 20 v24 m68 0 v-24 m-68 24 q0 10 10 10 m48 0 q10 0 10 -10 m-58 10 h10 m26 0 h10 m0 0 h2 m23 -164 h-3"/>
         <polygon points="205 17 213 13 213 21"/>
         <polygon points="205 17 197 13 197 21"/></svg>
