<svg xmlns="http://www.w3.org/2000/svg">
         <defs>
            <style type="text/css">
    @namespace "http://www.w3.org/2000/svg";
    .line                 {fill: none; stroke: #332900; stroke-width: 1;}
    .bold-line            {stroke: #141000; shape-rendering: crispEdges; stroke-width: 2;}
    .thin-line            {stroke: #1F1800; shape-rendering: crispEdges}
    .filled               {fill: #332900; stroke: none;}
    text.terminal         {font-family: Verdana, Sans-serif;
                            font-size: 12px;
                            fill: #141000;
                            font-weight: bold;
                          }
    text.nonterminal      {font-family: Verdana, Sans-serif;
                            font-size: 12px;
                            fill: #1A1400;
                            font-weight: normal;
                          }
    text.regexp           {font-family: Verdana, Sans-serif;
                            font-size: 12px;
                            fill: #1F1800;
                            font-weight: normal;
                          }
    rect, circle, polygon {fill: #332900; stroke: #332900;}
    rect.terminal         {fill: #FFDB4D; stroke: #332900; stroke-width: 1;}
    rect.nonterminal      {fill: #FFEC9E; stroke: #332900; stroke-width: 1;}
    rect.text             {fill: none; stroke: none;}
    polygon.regexp        {fill: #FFF4C7; stroke: #332900; stroke-width: 1;}
  </style>
         </defs>
         <polygon points="9 51 1 47 1 55"/>
         <polygon points="17 51 9 47 9 55"/><a xmlns:xlink="http://www.w3.org/1999/xlink" xlink:href="#no_terminal" xlink:title="no_terminal">
            <rect x="51" y="37" width="96" height="32"/>
            <rect x="49" y="35" width="96" height="32" class="nonterminal"/>
            <text class="nonterminal" x="59" y="55">no_terminal</text></a><rect x="207" y="3" width="76" height="32" rx="10"/>
         <rect x="205" y="1" width="76" height="32" class="terminal" rx="10"/>
         <text class="terminal" x="215" y="21">terminal</text>
         <svg:path xmlns:svg="http://www.w3.org/2000/svg" class="line" d="m17 51 h2 m20 0 h10 m96 0 h10 m-136 0 l20 0 m-1 0 q-9 0 -9 -10 l0 -12 q0 -10 10 -10 m116 32 l20 0 m-20 0 q10 0 10 -10 l0 -12 q0 -10 -10 -10 m-116 0 h10 m0 0 h106 m40 32 h10 m0 0 h86 m-116 0 l20 0 m-1 0 q-9 0 -9 -10 l0 -14 q0 -10 10 -10 m96 34 l20 0 m-20 0 q10 0 10 -10 l0 -14 q0 -10 -10 -10 m-96 0 h10 m76 0 h10 m23 34 h-3"/>
         <polygon points="321 51 329 47 329 55"/>
         <polygon points="321 51 313 47 313 55"/></svg>
