<svg xmlns="http://www.w3.org/2000/svg">
         <defs>
            <style type="text/css">
    @namespace "http://www.w3.org/2000/svg";
    .line                 {fill: none; stroke: #332900; stroke-width: 1;}
    .bold-line            {stroke: #141000; shape-rendering: crispEdges; stroke-width: 2;}
    .thin-line            {stroke: #1F1800; shape-rendering: crispEdges}
    .filled               {fill: #332900; stroke: none;}
    text.terminal         {font-family: Verdana, Sans-serif;
                            font-size: 12px;
                            fill: #141000;
                            font-weight: bold;
                          }
    text.nonterminal      {font-family: Verdana, Sans-serif;
                            font-size: 12px;
                            fill: #1A1400;
                            font-weight: normal;
                          }
    text.regexp           {font-family: Verdana, Sans-serif;
                            font-size: 12px;
                            fill: #1F1800;
                            font-weight: normal;
                          }
    rect, circle, polygon {fill: #332900; stroke: #332900;}
    rect.terminal         {fill: #FFDB4D; stroke: #332900; stroke-width: 1;}
    rect.nonterminal      {fill: #FFEC9E; stroke: #332900; stroke-width: 1;}
    rect.text             {fill: none; stroke: none;}
    polygon.regexp        {fill: #FFF4C7; stroke: #332900; stroke-width: 1;}
  </style>
         </defs>
         <polygon points="9 17 1 13 1 21"/>
         <polygon points="17 17 9 13 9 21"/><a xmlns:xlink="http://www.w3.org/1999/xlink" xlink:href="#notes" xlink:title="notes">
            <rect x="51" y="3" width="56" height="32"/>
            <rect x="49" y="1" width="56" height="32" class="nonterminal"/>
            <text class="nonterminal" x="59" y="21">notes</text></a><a xmlns:xlink="http://www.w3.org/1999/xlink" xlink:href="#rest" xlink:title="rest">
            <rect x="51" y="47" width="44" height="32"/>
            <rect x="49" y="45" width="44" height="32" class="nonterminal"/>
            <text class="nonterminal" x="59" y="65">rest</text></a><a xmlns:xlink="http://www.w3.org/1999/xlink" xlink:href="#changeconfiguration" xlink:title="changeconfiguration">
            <rect x="51" y="91" width="148" height="32"/>
            <rect x="49" y="89" width="148" height="32" class="nonterminal"/>
            <text class="nonterminal" x="59" y="109">changeconfiguration</text></a><a xmlns:xlink="http://www.w3.org/1999/xlink" xlink:href="#slurs" xlink:title="slurs">
            <rect x="51" y="135" width="50" height="32"/>
            <rect x="49" y="133" width="50" height="32" class="nonterminal"/>
            <text class="nonterminal" x="59" y="153">slurs</text></a><a xmlns:xlink="http://www.w3.org/1999/xlink" xlink:href="#ties" xlink:title="ties">
            <rect x="51" y="179" width="42" height="32"/>
            <rect x="49" y="177" width="42" height="32" class="nonterminal"/>
            <text class="nonterminal" x="59" y="197">ties</text></a><svg:path xmlns:svg="http://www.w3.org/2000/svg" class="line" d="m17 17 h2 m20 0 h10 m56 0 h10 m0 0 h92 m-188 0 h20 m168 0 h20 m-208 0 q10 0 10 10 m188 0 q0 -10 10 -10 m-198 10 v24 m188 0 v-24 m-188 24 q0 10 10 10 m168 0 q10 0 10 -10 m-178 10 h10 m44 0 h10 m0 0 h104 m-178 -10 v20 m188 0 v-20 m-188 20 v24 m188 0 v-24 m-188 24 q0 10 10 10 m168 0 q10 0 10 -10 m-178 10 h10 m148 0 h10 m-178 -10 v20 m188 0 v-20 m-188 20 v24 m188 0 v-24 m-188 24 q0 10 10 10 m168 0 q10 0 10 -10 m-178 10 h10 m50 0 h10 m0 0 h98 m-178 -10 v20 m188 0 v-20 m-188 20 v24 m188 0 v-24 m-188 24 q0 10 10 10 m168 0 q10 0 10 -10 m-178 10 h10 m42 0 h10 m0 0 h106 m23 -176 h-3"/>
         <polygon points="237 17 245 13 245 21"/>
         <polygon points="237 17 229 13 229 21"/></svg>
