<svg xmlns="http://www.w3.org/2000/svg">
         <defs>
            <style type="text/css">
    @namespace "http://www.w3.org/2000/svg";
    .line                 {fill: none; stroke: #332900; stroke-width: 1;}
    .bold-line            {stroke: #141000; shape-rendering: crispEdges; stroke-width: 2;}
    .thin-line            {stroke: #1F1800; shape-rendering: crispEdges}
    .filled               {fill: #332900; stroke: none;}
    text.terminal         {font-family: Verdana, Sans-serif;
                            font-size: 12px;
                            fill: #141000;
                            font-weight: bold;
                          }
    text.nonterminal      {font-family: Verdana, Sans-serif;
                            font-size: 12px;
                            fill: #1A1400;
                            font-weight: normal;
                          }
    text.regexp           {font-family: Verdana, Sans-serif;
                            font-size: 12px;
                            fill: #1F1800;
                            font-weight: normal;
                          }
    rect, circle, polygon {fill: #332900; stroke: #332900;}
    rect.terminal         {fill: #FFDB4D; stroke: #332900; stroke-width: 1;}
    rect.nonterminal      {fill: #FFEC9E; stroke: #332900; stroke-width: 1;}
    rect.text             {fill: none; stroke: none;}
    polygon.regexp        {fill: #FFF4C7; stroke: #332900; stroke-width: 1;}
  </style>
         </defs>
         <polygon points="9 51 1 47 1 55"/>
         <polygon points="17 51 9 47 9 55"/>
         <rect x="31" y="37" width="28" height="32" rx="10"/>
         <rect x="29" y="35" width="28" height="32" class="terminal" rx="10"/>
         <text class="terminal" x="39" y="55">*</text>
         <rect x="79" y="37" width="28" height="32" rx="10"/>
         <rect x="77" y="35" width="28" height="32" class="terminal" rx="10"/>
         <text class="terminal" x="87" y="55">k</text>
         <rect x="127" y="37" width="26" height="32" rx="10"/>
         <rect x="125" y="35" width="26" height="32" class="terminal" rx="10"/>
         <text class="terminal" x="135" y="55">[</text><a xmlns:xlink="http://www.w3.org/1999/xlink" xlink:href="#note_signature" xlink:title="note_signature">
            <rect x="193" y="3" width="116" height="32"/>
            <rect x="191" y="1" width="116" height="32" class="nonterminal"/>
            <text class="nonterminal" x="201" y="21">note_signature</text></a><rect x="349" y="37" width="26" height="32" rx="10"/>
         <rect x="347" y="35" width="26" height="32" class="terminal" rx="10"/>
         <text class="terminal" x="357" y="55">]</text>
         <svg:path xmlns:svg="http://www.w3.org/2000/svg" class="line" d="m17 51 h2 m0 0 h10 m28 0 h10 m0 0 h10 m28 0 h10 m0 0 h10 m26 0 h10 m20 0 h10 m0 0 h126 m-156 0 l20 0 m-1 0 q-9 0 -9 -10 l0 -14 q0 -10 10 -10 m136 34 l20 0 m-20 0 q10 0 10 -10 l0 -14 q0 -10 -10 -10 m-136 0 h10 m116 0 h10 m20 34 h10 m26 0 h10 m3 0 h-3"/>
         <polygon points="393 51 401 47 401 55"/>
         <polygon points="393 51 385 47 385 55"/></svg>
