<svg xmlns="http://www.w3.org/2000/svg">
         <defs>
            <style type="text/css">
    @namespace "http://www.w3.org/2000/svg";
    .line                 {fill: none; stroke: #332900; stroke-width: 1;}
    .bold-line            {stroke: #141000; shape-rendering: crispEdges; stroke-width: 2;}
    .thin-line            {stroke: #1F1800; shape-rendering: crispEdges}
    .filled               {fill: #332900; stroke: none;}
    text.terminal         {font-family: Verdana, Sans-serif;
                            font-size: 12px;
                            fill: #141000;
                            font-weight: bold;
                          }
    text.nonterminal      {font-family: Verdana, Sans-serif;
                            font-size: 12px;
                            fill: #1A1400;
                            font-weight: normal;
                          }
    text.regexp           {font-family: Verdana, Sans-serif;
                            font-size: 12px;
                            fill: #1F1800;
                            font-weight: normal;
                          }
    rect, circle, polygon {fill: #332900; stroke: #332900;}
    rect.terminal         {fill: #FFDB4D; stroke: #332900; stroke-width: 1;}
    rect.nonterminal      {fill: #FFEC9E; stroke: #332900; stroke-width: 1;}
    rect.text             {fill: none; stroke: none;}
    polygon.regexp        {fill: #FFF4C7; stroke: #332900; stroke-width: 1;}
  </style>
         </defs>
         <polygon points="9 17 1 13 1 21"/>
         <polygon points="17 17 9 13 9 21"/>
         <rect x="31" y="3" width="28" height="32" rx="10"/>
         <rect x="29" y="1" width="28" height="32" class="terminal" rx="10"/>
         <text class="terminal" x="39" y="21">*</text>
         <rect x="79" y="3" width="46" height="32" rx="10"/>
         <rect x="77" y="1" width="46" height="32" class="terminal" rx="10"/>
         <text class="terminal" x="87" y="21">met</text>
         <rect x="145" y="3" width="26" height="32" rx="10"/>
         <rect x="143" y="1" width="26" height="32" class="terminal" rx="10"/>
         <text class="terminal" x="153" y="21">(</text><a xmlns:xlink="http://www.w3.org/1999/xlink" xlink:href="#common_met" xlink:title="common_met">
            <rect x="191" y="3" width="106" height="32"/>
            <rect x="189" y="1" width="106" height="32" class="nonterminal"/>
            <text class="nonterminal" x="199" y="21">common_met</text></a><rect x="317" y="3" width="26" height="32" rx="10"/>
         <rect x="315" y="1" width="26" height="32" class="terminal" rx="10"/>
         <text class="terminal" x="325" y="21">)</text>
         <svg:path xmlns:svg="http://www.w3.org/2000/svg" class="line" d="m17 17 h2 m0 0 h10 m28 0 h10 m0 0 h10 m46 0 h10 m0 0 h10 m26 0 h10 m0 0 h10 m106 0 h10 m0 0 h10 m26 0 h10 m3 0 h-3"/>
         <polygon points="361 17 369 13 369 21"/>
         <polygon points="361 17 353 13 353 21"/></svg>
