<svg xmlns="http://www.w3.org/2000/svg">
         <defs>
            <style type="text/css">
    @namespace "http://www.w3.org/2000/svg";
    .line                 {fill: none; stroke: #332900; stroke-width: 1;}
    .bold-line            {stroke: #141000; shape-rendering: crispEdges; stroke-width: 2;}
    .thin-line            {stroke: #1F1800; shape-rendering: crispEdges}
    .filled               {fill: #332900; stroke: none;}
    text.terminal         {font-family: Verdana, Sans-serif;
                            font-size: 12px;
                            fill: #141000;
                            font-weight: bold;
                          }
    text.nonterminal      {font-family: Verdana, Sans-serif;
                            font-size: 12px;
                            fill: #1A1400;
                            font-weight: normal;
                          }
    text.regexp           {font-family: Verdana, Sans-serif;
                            font-size: 12px;
                            fill: #1F1800;
                            font-weight: normal;
                          }
    rect, circle, polygon {fill: #332900; stroke: #332900;}
    rect.terminal         {fill: #FFDB4D; stroke: #332900; stroke-width: 1;}
    rect.nonterminal      {fill: #FFEC9E; stroke: #332900; stroke-width: 1;}
    rect.text             {fill: none; stroke: none;}
    polygon.regexp        {fill: #FFF4C7; stroke: #332900; stroke-width: 1;}
  </style>
         </defs>
         <polygon points="9 33 1 29 1 37"/>
         <polygon points="17 33 9 29 9 37"/><a xmlns:xlink="http://www.w3.org/1999/xlink" xlink:href="#barlines" xlink:title="barlines">
            <rect x="71" y="51" width="70" height="32"/>
            <rect x="69" y="49" width="70" height="32" class="nonterminal"/>
            <text class="nonterminal" x="79" y="69">barlines</text></a><a xmlns:xlink="http://www.w3.org/1999/xlink" xlink:href="#measure" xlink:title="measure">
            <rect x="201" y="19" width="76" height="32"/>
            <rect x="199" y="17" width="76" height="32" class="nonterminal"/>
            <text class="nonterminal" x="209" y="37">measure</text></a><a xmlns:xlink="http://www.w3.org/1999/xlink" xlink:href="#items" xlink:title="items">
            <rect x="51" y="95" width="54" height="32"/>
            <rect x="49" y="93" width="54" height="32" class="nonterminal"/>
            <text class="nonterminal" x="59" y="113">items</text></a><svg:path xmlns:svg="http://www.w3.org/2000/svg" class="line" d="m17 33 h2 m40 0 h10 m0 0 h80 m-110 0 h20 m90 0 h20 m-130 0 q10 0 10 10 m110 0 q0 -10 10 -10 m-120 10 v12 m110 0 v-12 m-110 12 q0 10 10 10 m90 0 q10 0 10 -10 m-100 10 h10 m70 0 h10 m40 -32 h10 m76 0 h10 m-116 0 l20 0 m-1 0 q-9 0 -9 -10 l0 -12 q0 -10 10 -10 m96 32 l20 0 m-20 0 q10 0 10 -10 l0 -12 q0 -10 -10 -10 m-96 0 h10 m0 0 h86 m-266 32 h20 m266 0 h20 m-306 0 q10 0 10 10 m286 0 q0 -10 10 -10 m-296 10 v56 m286 0 v-56 m-286 56 q0 10 10 10 m266 0 q10 0 10 -10 m-276 10 h10 m54 0 h10 m0 0 h192 m23 -76 h-3"/>
         <polygon points="335 33 343 29 343 37"/>
         <polygon points="335 33 327 29 327 37"/></svg>
