<svg xmlns="http://www.w3.org/2000/svg">
         <defs>
            <style type="text/css">
    @namespace "http://www.w3.org/2000/svg";
    .line                 {fill: none; stroke: #332900; stroke-width: 1;}
    .bold-line            {stroke: #141000; shape-rendering: crispEdges; stroke-width: 2;}
    .thin-line            {stroke: #1F1800; shape-rendering: crispEdges}
    .filled               {fill: #332900; stroke: none;}
    text.terminal         {font-family: Verdana, Sans-serif;
                            font-size: 12px;
                            fill: #141000;
                            font-weight: bold;
                          }
    text.nonterminal      {font-family: Verdana, Sans-serif;
                            font-size: 12px;
                            fill: #1A1400;
                            font-weight: normal;
                          }
    text.regexp           {font-family: Verdana, Sans-serif;
                            font-size: 12px;
                            fill: #1F1800;
                            font-weight: normal;
                          }
    rect, circle, polygon {fill: #332900; stroke: #332900;}
    rect.terminal         {fill: #FFDB4D; stroke: #332900; stroke-width: 1;}
    rect.nonterminal      {fill: #FFEC9E; stroke: #332900; stroke-width: 1;}
    rect.text             {fill: none; stroke: none;}
    polygon.regexp        {fill: #FFF4C7; stroke: #332900; stroke-width: 1;}
  </style>
         </defs>
         <polygon points="9 17 1 13 1 21"/>
         <polygon points="17 17 9 13 9 21"/><a xmlns:xlink="http://www.w3.org/1999/xlink" xlink:href="#note" xlink:title="note">
            <rect x="31" y="3" width="48" height="32"/>
            <rect x="29" y="1" width="48" height="32" class="nonterminal"/>
            <text class="nonterminal" x="39" y="21">note</text></a><a xmlns:xlink="http://www.w3.org/1999/xlink" xlink:href="#ame" xlink:title="ame">
            <rect x="99" y="3" width="48" height="32"/>
            <rect x="97" y="1" width="48" height="32" class="nonterminal"/>
            <text class="nonterminal" x="107" y="21">ame</text></a><rect x="187" y="3" width="26" height="32" rx="10"/>
         <rect x="185" y="1" width="26" height="32" class="terminal" rx="10"/>
         <text class="terminal" x="195" y="21">-</text>
         <rect x="187" y="47" width="30" height="32" rx="10"/>
         <rect x="185" y="45" width="30" height="32" class="terminal" rx="10"/>
         <text class="terminal" x="195" y="65">#</text>
         <svg:path xmlns:svg="http://www.w3.org/2000/svg" class="line" d="m17 17 h2 m0 0 h10 m48 0 h10 m0 0 h10 m48 0 h10 m20 0 h10 m26 0 h10 m0 0 h4 m-70 0 h20 m50 0 h20 m-90 0 q10 0 10 10 m70 0 q0 -10 10 -10 m-80 10 v24 m70 0 v-24 m-70 24 q0 10 10 10 m50 0 q10 0 10 -10 m-60 10 h10 m30 0 h10 m23 -44 h-3"/>
         <polygon points="255 17 263 13 263 21"/>
         <polygon points="255 17 247 13 247 21"/></svg>
