<svg xmlns="http://www.w3.org/2000/svg">
         <defs>
            <style type="text/css">
    @namespace "http://www.w3.org/2000/svg";
    .line                 {fill: none; stroke: #332900; stroke-width: 1;}
    .bold-line            {stroke: #141000; shape-rendering: crispEdges; stroke-width: 2;}
    .thin-line            {stroke: #1F1800; shape-rendering: crispEdges}
    .filled               {fill: #332900; stroke: none;}
    text.terminal         {font-family: Verdana, Sans-serif;
                            font-size: 12px;
                            fill: #141000;
                            font-weight: bold;
                          }
    text.nonterminal      {font-family: Verdana, Sans-serif;
                            font-size: 12px;
                            fill: #1A1400;
                            font-weight: normal;
                          }
    text.regexp           {font-family: Verdana, Sans-serif;
                            font-size: 12px;
                            fill: #1F1800;
                            font-weight: normal;
                          }
    rect, circle, polygon {fill: #332900; stroke: #332900;}
    rect.terminal         {fill: #FFDB4D; stroke: #332900; stroke-width: 1;}
    rect.nonterminal      {fill: #FFEC9E; stroke: #332900; stroke-width: 1;}
    rect.text             {fill: none; stroke: none;}
    polygon.regexp        {fill: #FFF4C7; stroke: #332900; stroke-width: 1;}
  </style>
         </defs>
         <polygon points="9 51 1 47 1 55"/>
         <polygon points="17 51 9 47 9 55"/><a xmlns:xlink="http://www.w3.org/1999/xlink" xlink:href="#time" xlink:title="time">
            <rect x="31" y="37" width="48" height="32"/>
            <rect x="29" y="35" width="48" height="32" class="nonterminal"/>
            <text class="nonterminal" x="39" y="55">time</text></a><rect x="119" y="3" width="24" height="32" rx="10"/>
         <rect x="117" y="1" width="24" height="32" class="terminal" rx="10"/>
         <text class="terminal" x="127" y="21">.</text><a xmlns:xlink="http://www.w3.org/1999/xlink" xlink:href="#pitch" xlink:title="pitch">
            <rect x="183" y="37" width="50" height="32"/>
            <rect x="181" y="35" width="50" height="32" class="nonterminal"/>
            <text class="nonterminal" x="191" y="55">pitch</text></a><a xmlns:xlink="http://www.w3.org/1999/xlink" xlink:href="#notesuffix" xlink:title="notesuffix">
            <rect x="273" y="69" width="82" height="32"/>
            <rect x="271" y="67" width="82" height="32" class="nonterminal"/>
            <text class="nonterminal" x="281" y="87">notesuffix</text></a><a xmlns:xlink="http://www.w3.org/1999/xlink" xlink:href="#edit_accident" xlink:title="edit_accident">
            <rect x="415" y="69" width="104" height="32"/>
            <rect x="413" y="67" width="104" height="32" class="nonterminal"/>
            <text class="nonterminal" x="423" y="87">edit_accident</text></a><a xmlns:xlink="http://www.w3.org/1999/xlink" xlink:href="#not_hide" xlink:title="not_hide">
            <rect x="579" y="69" width="76" height="32"/>
            <rect x="577" y="67" width="76" height="32" class="nonterminal"/>
            <text class="nonterminal" x="587" y="87">not_hide</text></a><a xmlns:xlink="http://www.w3.org/1999/xlink" xlink:href="#ornaments" xlink:title="ornaments">
            <rect x="715" y="69" width="88" height="32"/>
            <rect x="713" y="67" width="88" height="32" class="nonterminal"/>
            <text class="nonterminal" x="723" y="87">ornaments</text></a><a xmlns:xlink="http://www.w3.org/1999/xlink" xlink:href="#articulations" xlink:title="articulations">
            <rect x="525" y="155" width="98" height="32"/>
            <rect x="523" y="153" width="98" height="32" class="nonterminal"/>
            <text class="nonterminal" x="533" y="173">articulations</text></a><a xmlns:xlink="http://www.w3.org/1999/xlink" xlink:href="#stem_direction" xlink:title="stem_direction">
            <rect x="683" y="155" width="114" height="32"/>
            <rect x="681" y="153" width="114" height="32" class="nonterminal"/>
            <text class="nonterminal" x="691" y="173">stem_direction</text></a><svg:path xmlns:svg="http://www.w3.org/2000/svg" class="line" d="m17 51 h2 m0 0 h10 m48 0 h10 m20 0 h10 m0 0 h34 m-64 0 l20 0 m-1 0 q-9 0 -9 -10 l0 -14 q0 -10 10 -10 m44 34 l20 0 m-20 0 q10 0 10 -10 l0 -14 q0 -10 -10 -10 m-44 0 h10 m24 0 h10 m20 34 h10 m50 0 h10 m20 0 h10 m0 0 h92 m-122 0 h20 m102 0 h20 m-142 0 q10 0 10 10 m122 0 q0 -10 10 -10 m-132 10 v12 m122 0 v-12 m-122 12 q0 10 10 10 m102 0 q10 0 10 -10 m-112 10 h10 m82 0 h10 m40 -32 h10 m0 0 h114 m-144 0 h20 m124 0 h20 m-164 0 q10 0 10 10 m144 0 q0 -10 10 -10 m-154 10 v12 m144 0 v-12 m-144 12 q0 10 10 10 m124 0 q10 0 10 -10 m-134 10 h10 m104 0 h10 m40 -32 h10 m0 0 h86 m-116 0 h20 m96 0 h20 m-136 0 q10 0 10 10 m116 0 q0 -10 10 -10 m-126 10 v12 m116 0 v-12 m-116 12 q0 10 10 10 m96 0 q10 0 10 -10 m-106 10 h10 m76 0 h10 m40 -32 h10 m0 0 h98 m-128 0 h20 m108 0 h20 m-148 0 q10 0 10 10 m128 0 q0 -10 10 -10 m-138 10 v12 m128 0 v-12 m-128 12 q0 10 10 10 m108 0 q10 0 10 -10 m-118 10 h10 m88 0 h10 m22 -32 l2 0 m2 0 l2 0 m2 0 l2 0 m-362 86 l2 0 m2 0 l2 0 m2 0 l2 0 m22 0 h10 m0 0 h108 m-138 0 h20 m118 0 h20 m-158 0 q10 0 10 10 m138 0 q0 -10 10 -10 m-148 10 v12 m138 0 v-12 m-138 12 q0 10 10 10 m118 0 q10 0 10 -10 m-128 10 h10 m98 0 h10 m40 -32 h10 m0 0 h124 m-154 0 h20 m134 0 h20 m-174 0 q10 0 10 10 m154 0 q0 -10 10 -10 m-164 10 v12 m154 0 v-12 m-154 12 q0 10 10 10 m134 0 q10 0 10 -10 m-144 10 h10 m114 0 h10 m23 -32 h-3"/>
         <polygon points="835 137 843 133 843 141"/>
         <polygon points="835 137 827 133 827 141"/></svg>
