<svg xmlns="http://www.w3.org/2000/svg">
         <defs>
            <style type="text/css">
    @namespace "http://www.w3.org/2000/svg";
    .line                 {fill: none; stroke: #332900; stroke-width: 1;}
    .bold-line            {stroke: #141000; shape-rendering: crispEdges; stroke-width: 2;}
    .thin-line            {stroke: #1F1800; shape-rendering: crispEdges}
    .filled               {fill: #332900; stroke: none;}
    text.terminal         {font-family: Verdana, Sans-serif;
                            font-size: 12px;
                            fill: #141000;
                            font-weight: bold;
                          }
    text.nonterminal      {font-family: Verdana, Sans-serif;
                            font-size: 12px;
                            fill: #1A1400;
                            font-weight: normal;
                          }
    text.regexp           {font-family: Verdana, Sans-serif;
                            font-size: 12px;
                            fill: #1F1800;
                            font-weight: normal;
                          }
    rect, circle, polygon {fill: #332900; stroke: #332900;}
    rect.terminal         {fill: #FFDB4D; stroke: #332900; stroke-width: 1;}
    rect.nonterminal      {fill: #FFEC9E; stroke: #332900; stroke-width: 1;}
    rect.text             {fill: none; stroke: none;}
    polygon.regexp        {fill: #FFF4C7; stroke: #332900; stroke-width: 1;}
  </style>
         </defs>
         <polygon points="9 33 1 29 1 37"/>
         <polygon points="17 33 9 29 9 37"/><a xmlns:xlink="http://www.w3.org/1999/xlink" xlink:href="#noteName" xlink:title="noteName">
            <rect x="71" y="19" width="86" height="32"/>
            <rect x="69" y="17" width="86" height="32" class="nonterminal"/>
            <text class="nonterminal" x="79" y="37">noteName</text></a><a xmlns:xlink="http://www.w3.org/1999/xlink" xlink:href="#noteNameCl" xlink:title="noteNameCl">
            <rect x="71" y="85" width="98" height="32"/>
            <rect x="69" y="83" width="98" height="32" class="nonterminal"/>
            <text class="nonterminal" x="79" y="103">noteNameCl</text></a><svg:path xmlns:svg="http://www.w3.org/2000/svg" class="line" d="m17 33 h2 m40 0 h10 m86 0 h10 m-126 0 l20 0 m-1 0 q-9 0 -9 -10 l0 -12 q0 -10 10 -10 m106 32 l20 0 m-20 0 q10 0 10 -10 l0 -12 q0 -10 -10 -10 m-106 0 h10 m0 0 h96 m20 32 h12 m-178 0 h20 m158 0 h20 m-198 0 q10 0 10 10 m178 0 q0 -10 10 -10 m-188 10 v46 m178 0 v-46 m-178 46 q0 10 10 10 m158 0 q10 0 10 -10 m-148 10 h10 m98 0 h10 m-138 0 l20 0 m-1 0 q-9 0 -9 -10 l0 -12 q0 -10 10 -10 m118 32 l20 0 m-20 0 q10 0 10 -10 l0 -12 q0 -10 -10 -10 m-118 0 h10 m0 0 h108 m43 -34 h-3"/>
         <polygon points="227 33 235 29 235 37"/>
         <polygon points="227 33 219 29 219 37"/></svg>
