<svg xmlns="http://www.w3.org/2000/svg">
         <defs>
            <style type="text/css">
    @namespace "http://www.w3.org/2000/svg";
    .line                 {fill: none; stroke: #332900; stroke-width: 1;}
    .bold-line            {stroke: #141000; shape-rendering: crispEdges; stroke-width: 2;}
    .thin-line            {stroke: #1F1800; shape-rendering: crispEdges}
    .filled               {fill: #332900; stroke: none;}
    text.terminal         {font-family: Verdana, Sans-serif;
                            font-size: 12px;
                            fill: #141000;
                            font-weight: bold;
                          }
    text.nonterminal      {font-family: Verdana, Sans-serif;
                            font-size: 12px;
                            fill: #1A1400;
                            font-weight: normal;
                          }
    text.regexp           {font-family: Verdana, Sans-serif;
                            font-size: 12px;
                            fill: #1F1800;
                            font-weight: normal;
                          }
    rect, circle, polygon {fill: #332900; stroke: #332900;}
    rect.terminal         {fill: #FFDB4D; stroke: #332900; stroke-width: 1;}
    rect.nonterminal      {fill: #FFEC9E; stroke: #332900; stroke-width: 1;}
    rect.text             {fill: none; stroke: none;}
    polygon.regexp        {fill: #FFF4C7; stroke: #332900; stroke-width: 1;}
  </style>
         </defs>
         <polygon points="9 51 1 47 1 55"/>
         <polygon points="17 51 9 47 9 55"/><a xmlns:xlink="http://www.w3.org/1999/xlink" xlink:href="#time" xlink:title="time">
            <rect x="31" y="37" width="48" height="32"/>
            <rect x="29" y="35" width="48" height="32" class="nonterminal"/>
            <text class="nonterminal" x="39" y="55">time</text></a><rect x="119" y="3" width="24" height="32" rx="10"/>
         <rect x="117" y="1" width="24" height="32" class="terminal" rx="10"/>
         <text class="terminal" x="127" y="21">.</text>
         <rect x="183" y="37" width="26" height="32" rx="10"/>
         <rect x="181" y="35" width="26" height="32" class="terminal" rx="10"/>
         <text class="terminal" x="191" y="55">r</text>
         <svg:path xmlns:svg="http://www.w3.org/2000/svg" class="line" d="m17 51 h2 m0 0 h10 m48 0 h10 m20 0 h10 m0 0 h34 m-64 0 l20 0 m-1 0 q-9 0 -9 -10 l0 -14 q0 -10 10 -10 m44 34 l20 0 m-20 0 q10 0 10 -10 l0 -14 q0 -10 -10 -10 m-44 0 h10 m24 0 h10 m20 34 h10 m26 0 h10 m3 0 h-3"/>
         <polygon points="227 51 235 47 235 55"/>
         <polygon points="227 51 219 47 219 55"/></svg>
