<svg xmlns="http://www.w3.org/2000/svg">
         <defs>
            <style type="text/css">
    @namespace "http://www.w3.org/2000/svg";
    .line                 {fill: none; stroke: #332900; stroke-width: 1;}
    .bold-line            {stroke: #141000; shape-rendering: crispEdges; stroke-width: 2;}
    .thin-line            {stroke: #1F1800; shape-rendering: crispEdges}
    .filled               {fill: #332900; stroke: none;}
    text.terminal         {font-family: Verdana, Sans-serif;
                            font-size: 12px;
                            fill: #141000;
                            font-weight: bold;
                          }
    text.nonterminal      {font-family: Verdana, Sans-serif;
                            font-size: 12px;
                            fill: #1A1400;
                            font-weight: normal;
                          }
    text.regexp           {font-family: Verdana, Sans-serif;
                            font-size: 12px;
                            fill: #1F1800;
                            font-weight: normal;
                          }
    rect, circle, polygon {fill: #332900; stroke: #332900;}
    rect.terminal         {fill: #FFDB4D; stroke: #332900; stroke-width: 1;}
    rect.nonterminal      {fill: #FFEC9E; stroke: #332900; stroke-width: 1;}
    rect.text             {fill: none; stroke: none;}
    polygon.regexp        {fill: #FFF4C7; stroke: #332900; stroke-width: 1;}
  </style>
         </defs>
         <polygon points="9 51 1 47 1 55"/>
         <polygon points="17 51 9 47 9 55"/>
         <rect x="71" y="69" width="30" height="32" rx="10"/>
         <rect x="69" y="67" width="30" height="32" class="terminal" rx="10"/>
         <text class="terminal" x="79" y="87">U</text>
         <rect x="161" y="3" width="30" height="32" rx="10"/>
         <rect x="159" y="1" width="30" height="32" class="terminal" rx="10"/>
         <text class="terminal" x="169" y="21">&amp;</text>
         <rect x="231" y="37" width="26" height="32" rx="10"/>
         <rect x="229" y="35" width="26" height="32" class="terminal" rx="10"/>
         <text class="terminal" x="239" y="55">(</text>
         <rect x="71" y="113" width="30" height="32" rx="10"/>
         <rect x="69" y="111" width="30" height="32" class="terminal" rx="10"/>
         <text class="terminal" x="79" y="131">&amp;</text>
         <rect x="141" y="147" width="26" height="32" rx="10"/>
         <rect x="139" y="145" width="26" height="32" class="terminal" rx="10"/>
         <text class="terminal" x="149" y="165">)</text>
         <svg:path xmlns:svg="http://www.w3.org/2000/svg" class="line" d="m17 51 h2 m40 0 h10 m0 0 h40 m-70 0 h20 m50 0 h20 m-90 0 q10 0 10 10 m70 0 q0 -10 10 -10 m-80 10 v12 m70 0 v-12 m-70 12 q0 10 10 10 m50 0 q10 0 10 -10 m-60 10 h10 m30 0 h10 m40 -32 h10 m0 0 h40 m-70 0 l20 0 m-1 0 q-9 0 -9 -10 l0 -14 q0 -10 10 -10 m50 34 l20 0 m-20 0 q10 0 10 -10 l0 -14 q0 -10 -10 -10 m-50 0 h10 m30 0 h10 m20 34 h10 m26 0 h10 m-246 0 h20 m226 0 h20 m-266 0 q10 0 10 10 m246 0 q0 -10 10 -10 m-256 10 v90 m246 0 v-90 m-246 90 q0 10 10 10 m226 0 q10 0 10 -10 m-216 10 h10 m0 0 h40 m-70 0 l20 0 m-1 0 q-9 0 -9 -10 l0 -14 q0 -10 10 -10 m50 34 l20 0 m-20 0 q10 0 10 -10 l0 -14 q0 -10 -10 -10 m-50 0 h10 m30 0 h10 m20 34 h10 m26 0 h10 m0 0 h90 m23 -110 h-3"/>
         <polygon points="295 51 303 47 303 55"/>
         <polygon points="295 51 287 47 287 55"/></svg>
