<svg xmlns="http://www.w3.org/2000/svg">
         <defs>
            <style type="text/css">
    @namespace "http://www.w3.org/2000/svg";
    .line                 {fill: none; stroke: #332900; stroke-width: 1;}
    .bold-line            {stroke: #141000; shape-rendering: crispEdges; stroke-width: 2;}
    .thin-line            {stroke: #1F1800; shape-rendering: crispEdges}
    .filled               {fill: #332900; stroke: none;}
    text.terminal         {font-family: Verdana, Sans-serif;
                            font-size: 12px;
                            fill: #141000;
                            font-weight: bold;
                          }
    text.nonterminal      {font-family: Verdana, Sans-serif;
                            font-size: 12px;
                            fill: #1A1400;
                            font-weight: normal;
                          }
    text.regexp           {font-family: Verdana, Sans-serif;
                            font-size: 12px;
                            fill: #1F1800;
                            font-weight: normal;
                          }
    rect, circle, polygon {fill: #332900; stroke: #332900;}
    rect.terminal         {fill: #FFDB4D; stroke: #332900; stroke-width: 1;}
    rect.nonterminal      {fill: #FFEC9E; stroke: #332900; stroke-width: 1;}
    rect.text             {fill: none; stroke: none;}
    polygon.regexp        {fill: #FFF4C7; stroke: #332900; stroke-width: 1;}
  </style>
         </defs>
         <polygon points="9 17 1 13 1 21"/>
         <polygon points="17 17 9 13 9 21"/>
         <rect x="71" y="35" width="30" height="32" rx="10"/>
         <rect x="69" y="33" width="30" height="32" class="terminal" rx="10"/>
         <text class="terminal" x="79" y="53">U</text>
         <rect x="141" y="3" width="26" height="32" rx="10"/>
         <rect x="139" y="1" width="26" height="32" class="terminal" rx="10"/>
         <text class="terminal" x="149" y="21">[</text><a xmlns:xlink="http://www.w3.org/1999/xlink" xlink:href="#note" xlink:title="note">
            <rect x="187" y="3" width="48" height="32"/>
            <rect x="185" y="1" width="48" height="32" class="nonterminal"/>
            <text class="nonterminal" x="195" y="21">note</text></a><rect x="71" y="111" width="26" height="32" rx="10"/>
         <rect x="69" y="109" width="26" height="32" class="terminal" rx="10"/>
         <text class="terminal" x="79" y="129">[</text><a xmlns:xlink="http://www.w3.org/1999/xlink" xlink:href="#note" xlink:title="note">
            <rect x="137" y="79" width="48" height="32"/>
            <rect x="135" y="77" width="48" height="32" class="nonterminal"/>
            <text class="nonterminal" x="145" y="97">note</text></a><rect x="205" y="79" width="26" height="32" rx="10"/>
         <rect x="203" y="77" width="26" height="32" class="terminal" rx="10"/>
         <text class="terminal" x="213" y="97">]</text>
         <svg:path xmlns:svg="http://www.w3.org/2000/svg" class="line" d="m17 17 h2 m40 0 h10 m0 0 h40 m-70 0 h20 m50 0 h20 m-90 0 q10 0 10 10 m70 0 q0 -10 10 -10 m-80 10 v12 m70 0 v-12 m-70 12 q0 10 10 10 m50 0 q10 0 10 -10 m-60 10 h10 m30 0 h10 m20 -32 h10 m26 0 h10 m0 0 h10 m48 0 h10 m-224 0 h20 m204 0 h20 m-244 0 q10 0 10 10 m224 0 q0 -10 10 -10 m-234 10 v56 m224 0 v-56 m-224 56 q0 10 10 10 m204 0 q10 0 10 -10 m-194 10 h10 m0 0 h36 m-66 0 h20 m46 0 h20 m-86 0 q10 0 10 10 m66 0 q0 -10 10 -10 m-76 10 v12 m66 0 v-12 m-66 12 q0 10 10 10 m46 0 q10 0 10 -10 m-56 10 h10 m26 0 h10 m20 -32 h10 m48 0 h10 m0 0 h10 m26 0 h10 m0 0 h4 m23 -76 h-3"/>
         <polygon points="273 17 281 13 281 21"/>
         <polygon points="273 17 265 13 265 21"/></svg>
