<svg xmlns="http://www.w3.org/2000/svg">
         <defs>
            <style type="text/css">
    @namespace "http://www.w3.org/2000/svg";
    .line                 {fill: none; stroke: #332900; stroke-width: 1;}
    .bold-line            {stroke: #141000; shape-rendering: crispEdges; stroke-width: 2;}
    .thin-line            {stroke: #1F1800; shape-rendering: crispEdges}
    .filled               {fill: #332900; stroke: none;}
    text.terminal         {font-family: Verdana, Sans-serif;
                            font-size: 12px;
                            fill: #141000;
                            font-weight: bold;
                          }
    text.nonterminal      {font-family: Verdana, Sans-serif;
                            font-size: 12px;
                            fill: #1A1400;
                            font-weight: normal;
                          }
    text.regexp           {font-family: Verdana, Sans-serif;
                            font-size: 12px;
                            fill: #1F1800;
                            font-weight: normal;
                          }
    rect, circle, polygon {fill: #332900; stroke: #332900;}
    rect.terminal         {fill: #FFDB4D; stroke: #332900; stroke-width: 1;}
    rect.nonterminal      {fill: #FFEC9E; stroke: #332900; stroke-width: 1;}
    rect.text             {fill: none; stroke: none;}
    polygon.regexp        {fill: #FFF4C7; stroke: #332900; stroke-width: 1;}
  </style>
         </defs>
         <polygon points="9 17 1 13 1 21"/>
         <polygon points="17 17 9 13 9 21"/>
         <rect x="31" y="3" width="28" height="32" rx="10"/>
         <rect x="29" y="1" width="28" height="32" class="terminal" rx="10"/>
         <text class="terminal" x="39" y="21">*</text>
         <rect x="79" y="3" width="30" height="32" rx="10"/>
         <rect x="77" y="1" width="30" height="32" class="terminal" rx="10"/>
         <text class="terminal" x="87" y="21">M</text><a xmlns:xlink="http://www.w3.org/1999/xlink" xlink:href="#fraction" xlink:title="fraction">
            <rect x="129" y="3" width="68" height="32"/>
            <rect x="127" y="1" width="68" height="32" class="nonterminal"/>
            <text class="nonterminal" x="137" y="21">fraction</text></a><a xmlns:xlink="http://www.w3.org/1999/xlink" xlink:href="#metter" xlink:title="metter">
            <rect x="237" y="35" width="62" height="32"/>
            <rect x="235" y="33" width="62" height="32" class="nonterminal"/>
            <text class="nonterminal" x="245" y="53">metter</text></a><svg:path xmlns:svg="http://www.w3.org/2000/svg" class="line" d="m17 17 h2 m0 0 h10 m28 0 h10 m0 0 h10 m30 0 h10 m0 0 h10 m68 0 h10 m20 0 h10 m0 0 h72 m-102 0 h20 m82 0 h20 m-122 0 q10 0 10 10 m102 0 q0 -10 10 -10 m-112 10 v12 m102 0 v-12 m-102 12 q0 10 10 10 m82 0 q10 0 10 -10 m-92 10 h10 m62 0 h10 m23 -32 h-3"/>
         <polygon points="337 17 345 13 345 21"/>
         <polygon points="337 17 329 13 329 21"/></svg>
